<svg width="512" height="512" viewBox="0 0 512 512" fill="none" xmlns="http://www.w3.org/2000/svg">
<path fill-rule="evenodd" clip-rule="evenodd" d="M306.075 256.785C280.622 251.87 261.179 247.191 256.908 246.131L256.878 245.808L256.849 245.719C261.327 244.778 283.303 240.598 307.136 242.776C350.147 246.72 345.168 188.801 310.907 198.866C323.368 166.227 275.172 153.131 266.894 195.893C261.945 221.498 257.202 240.981 256.201 245.072C256.112 245.043 256.024 245.042 255.936 245.042L255.818 245.072C254.904 240.628 250.692 218.673 252.872 194.834C256.819 151.865 198.843 156.839 208.918 191.067C176.218 178.618 163.139 226.737 205.943 235.007C231.543 239.98 251.045 244.689 255.17 245.69C255.14 245.778 255.111 245.896 255.14 245.984V246.102C250.603 247.044 228.656 251.223 204.853 249.045C161.872 245.101 166.821 303.021 201.082 292.955C188.621 325.594 236.816 338.661 245.094 295.898C249.484 273.384 253.667 255.579 255.287 248.839C255.965 262.112 254.61 275.415 251.87 288.364C248.954 302.285 244.564 315.882 239.969 329.42C235.167 342.87 230.748 356.967 228.921 371.505C226.948 386.044 227.272 401.024 230.129 415.563V415.592L230.159 415.74C230.689 418.006 232.957 419.418 235.226 418.889C237.523 418.33 238.937 416.063 238.407 413.797C235.226 400.259 234.342 386.221 235.697 372.3C236.345 365.325 237.523 358.379 239.144 351.522C240.734 344.635 242.826 337.896 244.888 330.98C248.983 317.206 252.872 303.286 255.258 289.012C257.202 277.593 258.086 265.968 257.556 254.401C258.97 263.819 260.678 279.918 259.117 296.987C255.17 339.926 313.175 334.982 303.1 300.754C335.77 313.204 348.88 265.055 306.075 256.785Z" fill="#00AB37"/>
</svg>
