<svg width="154" height="188" viewBox="0 0 154 188" fill="none" xmlns="http://www.w3.org/2000/svg">
<path d="M36.9375 45.7188C43.8238 45.7188 49.4062 40.1363 49.4062 33.25C49.4062 26.3637 43.8238 20.7812 36.9375 20.7812C30.0512 20.7812 24.4688 26.3637 24.4688 33.25C24.4688 40.1363 30.0512 45.7188 36.9375 45.7188Z" stroke="black" stroke-width="6" stroke-miterlimit="10" stroke-linecap="round" stroke-linejoin="round"/>
<path d="M36.9375 45.7188V112.219" stroke="black" stroke-width="6" stroke-miterlimit="10" stroke-linecap="round" stroke-linejoin="round"/>
<path d="M78.5 95.5938C85.3863 95.5938 90.9688 90.0113 90.9688 83.125C90.9688 76.2387 85.3863 70.6562 78.5 70.6562C71.6137 70.6562 66.0312 76.2387 66.0312 83.125C66.0312 90.0113 71.6137 95.5938 78.5 95.5938Z" stroke="black" stroke-width="6" stroke-miterlimit="10" stroke-linecap="round" stroke-linejoin="round"/>
<path d="M78.5 20.7812V70.6562" stroke="black" stroke-width="6" stroke-miterlimit="10" stroke-linecap="round" stroke-linejoin="round"/>
<path d="M78.5 95.5938V112.219" stroke="black" stroke-width="6" stroke-miterlimit="10" stroke-linecap="round" stroke-linejoin="round"/>
<path d="M120.062 70.6562C126.949 70.6562 132.531 65.0738 132.531 58.1875C132.531 51.3012 126.949 45.7188 120.062 45.7188C113.176 45.7188 107.594 51.3012 107.594 58.1875C107.594 65.0738 113.176 70.6562 120.062 70.6562Z" stroke="black" stroke-width="6" stroke-miterlimit="10" stroke-linecap="round" stroke-linejoin="round"/>
<path d="M120.062 70.6562V112.219" stroke="black" stroke-width="6" stroke-miterlimit="10" stroke-linecap="round" stroke-linejoin="round"/>
<path d="M120.062 20.7812V45.7188" stroke="black" stroke-width="6" stroke-miterlimit="10" stroke-linecap="round" stroke-linejoin="round"/>
<path d="M1.51705 164.545H6.06818L10.875 176.273H11.0795L15.8864 164.545H20.4375V182H16.858V170.639H16.7131L12.196 181.915H9.75852L5.24148 170.597H5.09659V182H1.51705V164.545ZM26.4865 182H22.532L28.5575 164.545H33.3132L39.3303 182H35.3757L31.0036 168.534H30.8672L26.4865 182ZM26.2393 175.139H35.5803V178.02H26.2393V175.139ZM52.2124 164.545H55.9027V175.881C55.9027 177.153 55.5987 178.267 54.9908 179.222C54.3885 180.176 53.5447 180.92 52.4595 181.455C51.3743 181.983 50.1101 182.247 48.6669 182.247C47.218 182.247 45.951 181.983 44.8658 181.455C43.7805 180.92 42.9368 180.176 42.3345 179.222C41.7322 178.267 41.4311 177.153 41.4311 175.881V164.545H45.1214V175.565C45.1214 176.23 45.2663 176.821 45.5561 177.338C45.8516 177.855 46.2663 178.261 46.8004 178.557C47.3345 178.852 47.9567 179 48.6669 179C49.3828 179 50.005 178.852 50.5334 178.557C51.0675 178.261 51.4794 177.855 51.7692 177.338C52.0646 176.821 52.2124 176.23 52.2124 175.565V164.545ZM62.6293 164.545V182H58.9389V164.545H62.6293ZM82.794 170.188C82.6747 169.773 82.5071 169.406 82.2912 169.088C82.0753 168.764 81.8111 168.491 81.4986 168.27C81.1918 168.043 80.8395 167.869 80.4418 167.75C80.0497 167.631 79.6151 167.571 79.1378 167.571C78.2457 167.571 77.4616 167.793 76.7855 168.236C76.1151 168.679 75.5923 169.324 75.2173 170.17C74.8423 171.011 74.6548 172.04 74.6548 173.256C74.6548 174.472 74.8395 175.506 75.2088 176.358C75.5781 177.21 76.1009 177.861 76.777 178.31C77.4531 178.753 78.2514 178.974 79.1719 178.974C80.0071 178.974 80.7202 178.827 81.3111 178.531C81.9077 178.23 82.3622 177.807 82.6747 177.261C82.9929 176.716 83.152 176.071 83.152 175.327L83.902 175.438H79.402V172.659H86.706V174.858C86.706 176.392 86.3821 177.71 85.7344 178.812C85.0866 179.909 84.1946 180.756 83.0582 181.352C81.9219 181.943 80.6207 182.239 79.1548 182.239C77.5185 182.239 76.081 181.878 74.8423 181.156C73.6037 180.429 72.6378 179.398 71.9446 178.062C71.2571 176.722 70.9134 175.131 70.9134 173.29C70.9134 171.875 71.1179 170.614 71.527 169.506C71.9418 168.392 72.5213 167.449 73.2656 166.676C74.0099 165.903 74.8764 165.315 75.8651 164.912C76.8537 164.509 77.9247 164.307 79.0781 164.307C80.0668 164.307 80.9872 164.452 81.8395 164.741C82.6918 165.026 83.4474 165.429 84.1065 165.952C84.7713 166.474 85.3139 167.097 85.7344 167.818C86.1548 168.534 86.4247 169.324 86.544 170.188H82.794ZM93.1428 182.247C92.3075 182.247 91.5632 182.102 90.9098 181.812C90.2564 181.517 89.7393 181.082 89.3587 180.509C88.9837 179.929 88.7962 179.207 88.7962 178.344C88.7962 177.616 88.9297 177.006 89.1967 176.511C89.4638 176.017 89.8274 175.619 90.2876 175.318C90.7479 175.017 91.2706 174.79 91.8558 174.636C92.4467 174.483 93.0661 174.375 93.7138 174.312C94.4751 174.233 95.0888 174.159 95.5547 174.091C96.0206 174.017 96.3587 173.909 96.5689 173.767C96.7791 173.625 96.8842 173.415 96.8842 173.136V173.085C96.8842 172.545 96.7138 172.128 96.3729 171.832C96.0376 171.537 95.5604 171.389 94.9411 171.389C94.2876 171.389 93.7678 171.534 93.3814 171.824C92.995 172.108 92.7393 172.466 92.6143 172.898L89.2564 172.625C89.4268 171.83 89.7621 171.142 90.2621 170.562C90.7621 169.977 91.407 169.528 92.1967 169.216C92.9922 168.898 93.9126 168.739 94.9581 168.739C95.6854 168.739 96.3814 168.824 97.0462 168.994C97.7166 169.165 98.3104 169.429 98.8274 169.787C99.3501 170.145 99.7621 170.605 100.063 171.168C100.364 171.724 100.515 172.392 100.515 173.17V182H97.0717V180.185H96.9695C96.7592 180.594 96.478 180.955 96.1257 181.267C95.7734 181.574 95.3501 181.815 94.8558 181.991C94.3615 182.162 93.7905 182.247 93.1428 182.247ZM94.1825 179.741C94.7166 179.741 95.1882 179.636 95.5973 179.426C96.0064 179.21 96.3274 178.92 96.5604 178.557C96.7933 178.193 96.9098 177.781 96.9098 177.321V175.932C96.7962 176.006 96.6399 176.074 96.4411 176.136C96.2479 176.193 96.0291 176.247 95.7848 176.298C95.5405 176.344 95.2962 176.386 95.0518 176.426C94.8075 176.46 94.5859 176.491 94.3871 176.52C93.9609 176.582 93.5888 176.682 93.2706 176.818C92.9524 176.955 92.7053 177.139 92.5291 177.372C92.353 177.599 92.2649 177.884 92.2649 178.224C92.2649 178.719 92.4439 179.097 92.8018 179.358C93.1655 179.614 93.6257 179.741 94.1825 179.741ZM106.962 164.545V182H103.332V164.545H106.962ZM113.501 164.545V182H109.871V164.545H113.501ZM122.376 182.256C121.029 182.256 119.87 181.983 118.898 181.438C117.933 180.886 117.188 180.108 116.665 179.102C116.143 178.091 115.881 176.895 115.881 175.514C115.881 174.168 116.143 172.986 116.665 171.969C117.188 170.952 117.924 170.159 118.873 169.591C119.827 169.023 120.947 168.739 122.231 168.739C123.094 168.739 123.898 168.878 124.643 169.156C125.393 169.429 126.046 169.841 126.603 170.392C127.165 170.943 127.603 171.636 127.915 172.472C128.228 173.301 128.384 174.273 128.384 175.386V176.384H117.33V174.134H124.967C124.967 173.611 124.853 173.148 124.626 172.744C124.398 172.341 124.083 172.026 123.68 171.798C123.282 171.565 122.819 171.449 122.29 171.449C121.739 171.449 121.251 171.577 120.825 171.832C120.404 172.082 120.075 172.42 119.836 172.847C119.597 173.267 119.475 173.736 119.469 174.253V176.392C119.469 177.04 119.589 177.599 119.827 178.071C120.072 178.543 120.415 178.906 120.859 179.162C121.302 179.418 121.827 179.545 122.435 179.545C122.839 179.545 123.208 179.489 123.543 179.375C123.879 179.261 124.165 179.091 124.404 178.864C124.643 178.636 124.825 178.358 124.95 178.028L128.308 178.25C128.137 179.057 127.788 179.761 127.259 180.364C126.737 180.96 126.06 181.426 125.231 181.761C124.407 182.091 123.455 182.256 122.376 182.256ZM130.754 182V168.909H134.273V171.193H134.41C134.648 170.381 135.049 169.767 135.612 169.352C136.174 168.932 136.822 168.722 137.555 168.722C137.737 168.722 137.933 168.733 138.143 168.756C138.353 168.778 138.538 168.81 138.697 168.849V172.071C138.526 172.02 138.29 171.974 137.989 171.935C137.688 171.895 137.413 171.875 137.163 171.875C136.629 171.875 136.151 171.991 135.731 172.224C135.316 172.452 134.987 172.77 134.742 173.179C134.504 173.588 134.384 174.06 134.384 174.594V182H130.754ZM143.214 186.909C142.754 186.909 142.322 186.872 141.918 186.798C141.521 186.73 141.191 186.642 140.93 186.534L141.748 183.824C142.174 183.955 142.558 184.026 142.898 184.037C143.245 184.048 143.543 183.969 143.793 183.798C144.049 183.628 144.256 183.338 144.415 182.929L144.629 182.375L139.933 168.909H143.751L146.461 178.523H146.597L149.333 168.909H153.177L148.089 183.415C147.844 184.119 147.512 184.733 147.092 185.256C146.677 185.784 146.151 186.19 145.515 186.474C144.879 186.764 144.112 186.909 143.214 186.909Z" fill="black"/>
</svg>
