<svg width="33" height="33" viewBox="0 0 33 33" fill="none" xmlns="http://www.w3.org/2000/svg">
<circle cx="16.5" cy="16.5" r="16.5" fill="white"/>
<g clip-path="url(#clip0_1_15)">
<path d="M13.75 21.25C12.2666 21.25 10.8166 20.8101 9.58323 19.986C8.34986 19.1619 7.38856 17.9906 6.82091 16.6201C6.25325 15.2497 6.10472 13.7417 6.39411 12.2868C6.6835 10.832 7.39781 9.4956 8.4467 8.4467C9.4956 7.39781 10.832 6.6835 12.2868 6.39411C13.7417 6.10472 15.2497 6.25325 16.6201 6.82091C17.9906 7.38856 19.1619 8.34986 19.986 9.58323C20.8101 10.8166 21.25 12.2666 21.25 13.75C21.25 14.7349 21.056 15.7102 20.6791 16.6201C20.3022 17.5301 19.7497 18.3569 19.0533 19.0533C18.3569 19.7497 17.5301 20.3022 16.6201 20.6791C15.7102 21.056 14.7349 21.25 13.75 21.25ZM13.75 7.75C12.5633 7.75 11.4033 8.1019 10.4166 8.76119C9.42989 9.42047 8.66085 10.3575 8.20673 11.4539C7.7526 12.5503 7.63378 13.7567 7.86529 14.9205C8.0968 16.0844 8.66825 17.1535 9.50736 17.9926C10.3465 18.8318 11.4156 19.4032 12.5795 19.6347C13.7433 19.8662 14.9497 19.7474 16.0461 19.2933C17.1425 18.8392 18.0795 18.0701 18.7388 17.0834C19.3981 16.0967 19.75 14.9367 19.75 13.75C19.75 12.1587 19.1179 10.6326 17.9926 9.50736C16.8674 8.38214 15.3413 7.75 13.75 7.75Z" fill="black"/>
<path d="M25 25.75C24.9013 25.7506 24.8034 25.7317 24.7121 25.6943C24.6207 25.657 24.5376 25.602 24.4675 25.5325L18.4675 19.5325C18.3976 19.4626 18.3421 19.3796 18.3043 19.2882C18.2664 19.1968 18.2469 19.0989 18.2469 19C18.2469 18.9011 18.2664 18.8032 18.3043 18.7118C18.3421 18.6205 18.3976 18.5374 18.4675 18.4675C18.5374 18.3976 18.6204 18.3421 18.7118 18.3043C18.8032 18.2664 18.9011 18.2469 19 18.2469C19.0989 18.2469 19.1968 18.2664 19.2882 18.3043C19.3796 18.3421 19.4626 18.3976 19.5325 18.4675L25.5325 24.4675C25.6028 24.5372 25.6586 24.6202 25.6967 24.7116C25.7347 24.803 25.7544 24.901 25.7544 25C25.7544 25.099 25.7347 25.1971 25.6967 25.2884C25.6586 25.3798 25.6028 25.4628 25.5325 25.5325C25.4624 25.602 25.3793 25.657 25.2879 25.6943C25.1966 25.7317 25.0987 25.7506 25 25.75Z" fill="black"/>
</g>
<defs>
<clipPath id="clip0_1_15">
<rect width="24" height="24" fill="white" transform="translate(4 4)"/>
</clipPath>
</defs>
</svg>
