<svg width="28" height="28" viewBox="0 0 28 28" fill="none" xmlns="http://www.w3.org/2000/svg">
<g clip-path="url(#clip0_1_102)">
<path d="M24.5 6.81275H24.4982C24.4711 5.95875 23.8936 5.4635 23.3161 5.11262C21.5329 4.07662 18.095 3.51837 14 3.5C11.2796 3.5 8.82087 3.77563 6.97812 4.24025C6.05587 4.4765 5.28675 4.75212 4.68125 5.11262C4.1055 5.4635 3.52712 5.95962 3.5 6.81275C3.50088 6.83725 3.50612 6.85913 3.50787 6.88363H3.50262L4.99187 24.8587L5.02425 24.9576C5.1485 25.41 6.50912 28.0402 13.9991 27.9982H14.1899C21.5652 27.9991 22.8603 25.4039 22.9784 24.9401L23.0046 24.8491L24.4956 6.88275H24.4912C24.493 6.85913 24.4991 6.83725 24.5 6.81275ZM5.33925 6.78212C5.67438 6.47237 6.81975 6.0095 8.358 5.72688C9.90413 5.42938 11.8694 5.24913 14 5.24913C16.5953 5.24913 18.9481 5.5195 20.5914 5.936C21.4095 6.14337 22.05 6.39188 22.4175 6.61325C22.5452 6.6885 22.6371 6.76025 22.6922 6.81275C22.6826 6.8215 22.6721 6.83113 22.659 6.8425C22.3239 7.15225 21.1785 7.61688 19.6394 7.89863C18.095 8.19438 16.1298 8.37463 14 8.37463C11.4021 8.37463 9.04925 8.10425 7.40863 7.68862C6.58875 7.483 5.94737 7.23275 5.57987 7.01137C5.453 6.93525 5.36113 6.86437 5.30513 6.811C5.31563 6.80225 5.327 6.79262 5.33925 6.78212ZM21.2835 24.4457C21.0647 24.766 19.7584 26.2343 13.9991 26.2491C10.4221 26.2509 8.5295 25.6506 7.59237 25.137C7.12162 24.8798 6.88363 24.647 6.769 24.5079C6.74538 24.4799 6.727 24.4545 6.713 24.4353L5.425 8.87688C7.33425 9.67838 10.4151 10.1089 14.0009 10.1264C16.7186 10.1246 19.1783 9.85075 21.0201 9.3835C21.6038 9.23562 22.1182 9.06675 22.5759 8.87425L21.2835 24.4457Z" fill="black"/>
</g>
<defs>
<clipPath id="clip0_1_102">
<rect width="28" height="28" fill="white"/>
</clipPath>
</defs>
</svg>
