<svg width="32" height="32" viewBox="0 0 32 32" fill="none" xmlns="http://www.w3.org/2000/svg">
<path d="M31 16C31 18.9667 30.1203 21.8668 28.4721 24.3336C26.8238 26.8003 24.4812 28.7229 21.7403 29.8582C18.9994 30.9935 15.9834 31.2906 13.0737 30.7118C10.1639 30.133 7.49119 28.7044 5.3934 26.6066C3.29562 24.5088 1.86701 21.8361 1.28823 18.9264C0.709449 16.0166 1.0065 13.0006 2.14181 10.2597C3.27713 7.51886 5.19972 5.17618 7.66645 3.52796C10.1332 1.87973 13.0333 1 16 1C19.9783 1 23.7936 2.58035 26.6066 5.3934C29.4197 8.20644 31 12.0218 31 16ZM3.00001 16C3.00001 18.5712 3.76244 21.0846 5.1909 23.2224C6.61936 25.3603 8.64968 27.0265 11.0251 28.0104C13.4006 28.9944 16.0144 29.2518 18.5362 28.7502C21.0579 28.2486 23.3743 27.0105 25.1924 25.1924C27.0105 23.3743 28.2486 21.0579 28.7502 18.5362C29.2518 16.0144 28.9944 13.4006 28.0104 11.0251C27.0265 8.64968 25.3603 6.61935 23.2224 5.1909C21.0846 3.76244 18.5712 3 16 3C12.5522 3 9.24559 4.36964 6.80762 6.80761C4.36965 9.24558 3.00001 12.5522 3.00001 16Z" fill="black"/>
<path d="M19.87 10.41L14.29 16L19.87 21.59C20.0562 21.7774 20.1608 22.0308 20.1608 22.295C20.1608 22.5592 20.0562 22.8127 19.87 23C19.6826 23.1863 19.4292 23.2908 19.165 23.2908C18.9008 23.2908 18.6474 23.1863 18.46 23L12.1 16.64C11.9315 16.4697 11.8369 16.2397 11.8369 16C11.8369 15.7604 11.9315 15.5304 12.1 15.36L18.46 9.00002C18.6474 8.81377 18.9008 8.70923 19.165 8.70923C19.4292 8.70923 19.6826 8.81377 19.87 9.00002C20.0562 9.18738 20.1608 9.44084 20.1608 9.70502C20.1608 9.96921 20.0562 10.2227 19.87 10.41Z" fill="black"/>
</svg>
