<svg width="19" height="19" viewBox="0 0 19 19" fill="none" xmlns="http://www.w3.org/2000/svg">
<path d="M9.47031 16.2984C5.72969 16.2984 2.67188 13.2406 2.67188 9.49997C2.67188 5.75935 5.72969 2.70154 9.47031 2.70154C13.2109 2.70154 16.2687 5.75935 16.2687 9.49997C16.2984 13.2406 13.2406 16.2984 9.47031 16.2984ZM9.47031 3.41404C6.11562 3.41404 3.41406 6.14528 3.41406 9.47029C3.41406 12.7953 6.14531 15.5265 9.47031 15.5265C12.7953 15.5265 15.5266 12.7953 15.5266 9.47029C15.5266 6.14528 12.825 3.41404 9.47031 3.41404Z" fill="white"/>
<path d="M11.6078 12.9734L9.08438 10.45V5.84839H9.88594V10.1234L12.1719 12.4093L11.6078 12.9734Z" fill="white"/>
</svg>
