<svg width="34" height="34" viewBox="0 0 34 34" fill="none" xmlns="http://www.w3.org/2000/svg">
<path d="M23.4291 26.734L20.3345 23.6393C19.9046 23.2107 19.3223 22.97 18.7153 22.97C18.1082 22.97 17.5259 23.2107 17.0961 23.6393L15.7368 24.9986C12.6245 23.3659 10.0833 20.8239 8.45153 17.7111L9.81083 16.3518C10.2395 15.9219 10.4802 15.3397 10.4802 14.7326C10.4802 14.1255 10.2395 13.5433 9.81083 13.1134L6.71618 10.0211C6.28633 9.5924 5.70404 9.35168 5.09698 9.35168C4.48992 9.35168 3.90763 9.5924 3.47778 10.0211L1.00068 12.497C-0.29307 13.7908 -0.33332 16.0712 0.885681 18.9186C2.27694 21.8975 4.20375 24.5953 6.57013 26.8777C8.85256 29.2441 11.5504 31.1709 14.5293 32.5622C15.6889 33.1006 16.9443 33.402 18.2219 33.4488C18.7207 33.4739 19.2194 33.3982 19.6882 33.2263C20.1571 33.0544 20.5865 32.7898 20.9509 32.4484L23.4268 29.9724C23.6395 29.7598 23.8082 29.5074 23.9233 29.2295C24.0384 28.9517 24.0976 28.6539 24.0976 28.3532C24.0976 28.0525 24.0384 27.7547 23.9233 27.4769C23.8082 27.199 23.6395 26.9466 23.4268 26.734H23.4291ZM22.0491 28.5912L19.5732 31.0672C18.9027 31.7376 17.3065 31.6249 15.3032 30.767C12.5526 29.474 10.0623 27.6877 7.95588 25.4966C5.7648 23.3902 3.97846 20.8999 2.68543 18.1492C1.82638 16.1459 1.71483 14.5498 2.38528 13.8793L4.86123 11.4034C4.92436 11.3406 5.00972 11.3054 5.09871 11.3054C5.18769 11.3054 5.27306 11.3406 5.33618 11.4034L8.43083 14.498C8.46202 14.5292 8.48676 14.5662 8.50364 14.6069C8.52052 14.6477 8.52921 14.6914 8.52921 14.7355C8.52921 14.7796 8.52052 14.8233 8.50364 14.864C8.48676 14.9047 8.46202 14.9418 8.43083 14.973L6.08713 17.3166L6.38153 17.9388C8.28293 21.9431 11.5082 25.1684 15.5125 27.0698L16.1347 27.3642L18.4784 25.0205C18.5096 24.9893 18.5466 24.9646 18.5873 24.9477C18.6281 24.9308 18.6718 24.9221 18.7159 24.9221C18.76 24.9221 18.8036 24.9308 18.8444 24.9477C18.8851 24.9646 18.9221 24.9893 18.9533 25.0205L22.048 28.1151C22.0792 28.1463 22.1039 28.1834 22.1208 28.2241C22.1377 28.2648 22.1464 28.3085 22.1464 28.3526C22.1464 28.3967 22.1377 28.4404 22.1208 28.4811C22.1039 28.5219 22.0792 28.5589 22.048 28.5901L22.0491 28.5912Z" fill="black"/>
<path d="M30.3383 2.62883C28.3383 0.99595 25.8357 0.104065 23.2538 0.104065C20.6718 0.104065 18.1692 0.99595 16.1692 2.62883C15.2388 3.38978 14.4868 4.34566 13.9662 5.42901C13.4455 6.51235 13.169 7.69676 13.1562 8.89863C13.169 10.1005 13.4455 11.2849 13.9662 12.3683C14.4868 13.4516 15.2388 14.4075 16.1692 15.1684C16.5179 15.4668 16.8868 15.7408 17.2732 15.9884C16.5608 17.0627 15.726 18.0506 14.7857 18.9324C16.784 18.768 18.7354 18.2399 20.5438 17.3741C21.4316 17.5868 22.3414 17.6937 23.2543 17.6927C25.8421 17.7209 28.3549 16.8237 30.3395 15.1627C31.2699 14.4017 32.0219 13.4459 32.5425 12.3625C33.0631 11.2792 33.3396 10.0948 33.3525 8.89288C33.3387 7.69189 33.0616 6.50855 32.5408 5.42625C32.02 4.34396 31.2682 3.38905 30.3383 2.62883ZM23.2532 15.7388C18.7682 15.7388 15.11 12.6706 15.11 8.89863C15.11 5.12663 18.7636 2.05383 23.2532 2.05383C27.7428 2.05383 31.3963 5.12203 31.3963 8.89403C31.3963 12.666 27.7439 15.7388 23.2532 15.7388Z" fill="black"/>
<path d="M23.2532 10.1958C23.9728 10.1958 24.5561 9.61245 24.5561 8.89285C24.5561 8.17326 23.9728 7.5899 23.2532 7.5899C22.5336 7.5899 21.9502 8.17326 21.9502 8.89285C21.9502 9.61245 22.5336 10.1958 23.2532 10.1958Z" fill="black"/>
<path d="M18.6934 10.1958C19.413 10.1958 19.9964 9.61245 19.9964 8.89285C19.9964 8.17326 19.413 7.5899 18.6934 7.5899C17.9738 7.5899 17.3905 8.17326 17.3905 8.89285C17.3905 9.61245 17.9738 10.1958 18.6934 10.1958Z" fill="black"/>
<path d="M27.8141 10.1958C28.5337 10.1958 29.117 9.61245 29.117 8.89285C29.117 8.17326 28.5337 7.5899 27.8141 7.5899C27.0945 7.5899 26.5111 8.17326 26.5111 8.89285C26.5111 9.61245 27.0945 10.1958 27.8141 10.1958Z" fill="black"/>
</svg>
