<svg width="34" height="35" viewBox="0 0 34 35" fill="none" xmlns="http://www.w3.org/2000/svg">
<path d="M23.4291 27.3093L20.3345 24.2147C19.9046 23.786 19.3223 23.5453 18.7153 23.5453C18.1082 23.5453 17.5259 23.786 17.0961 24.2147L15.7368 25.574C12.6245 23.9412 10.0833 21.3992 8.45153 18.2864L9.81083 16.9271C10.2395 16.4973 10.4802 15.915 10.4802 15.3079C10.4802 14.7009 10.2395 14.1186 9.81083 13.6887L6.71618 10.5964C6.28633 10.1677 5.70404 9.927 5.09698 9.927C4.48992 9.927 3.90763 10.1677 3.47778 10.5964L1.00068 13.0723C-0.29307 14.3661 -0.33332 16.6465 0.885681 19.4939C2.27694 22.4728 4.20375 25.1706 6.57013 27.4531C8.85256 29.8194 11.5504 31.7463 14.5293 33.1375C15.6889 33.6759 16.9443 33.9774 18.2219 34.0242C18.7207 34.0492 19.2194 33.9735 19.6882 33.8016C20.1571 33.6297 20.5865 33.3652 20.9509 33.0237L23.4268 30.5477C23.6395 30.3351 23.8082 30.0827 23.9233 29.8048C24.0384 29.527 24.0976 29.2292 24.0976 28.9285C24.0976 28.6278 24.0384 28.33 23.9233 28.0522C23.8082 27.7744 23.6395 27.5219 23.4268 27.3093H23.4291ZM22.0491 29.1666L19.5732 31.6425C18.9027 32.313 17.3065 32.2003 15.3032 31.3424C12.5526 30.0494 10.0623 28.263 7.95588 26.0719C5.7648 23.9655 3.97846 21.4752 2.68543 18.7246C1.82638 16.7213 1.71483 15.1251 2.38528 14.4546L4.86123 11.9787C4.92436 11.916 5.00972 11.8808 5.09871 11.8808C5.18769 11.8808 5.27306 11.916 5.33618 11.9787L8.43083 15.0733C8.46202 15.1045 8.48676 15.1415 8.50364 15.1823C8.52052 15.223 8.52921 15.2667 8.52921 15.3108C8.52921 15.3549 8.52052 15.3986 8.50364 15.4393C8.48676 15.4801 8.46202 15.5171 8.43083 15.5483L6.08713 17.892L6.38153 18.5141C8.28293 22.5184 11.5082 25.7437 15.5125 27.6451L16.1347 27.9395L18.4784 25.5958C18.5096 25.5646 18.5466 25.5399 18.5873 25.523C18.6281 25.5061 18.6718 25.4974 18.7159 25.4974C18.76 25.4974 18.8036 25.5061 18.8444 25.523C18.8851 25.5399 18.9221 25.5646 18.9533 25.5958L22.048 28.6905C22.0792 28.7216 22.1039 28.7587 22.1208 28.7994C22.1377 28.8402 22.1464 28.8838 22.1464 28.9279C22.1464 28.972 22.1377 29.0157 22.1208 29.0565C22.1039 29.0972 22.0792 29.1342 22.048 29.1654L22.0491 29.1666Z" fill="white"/>
<path d="M30.3383 3.20415C28.3383 1.57127 25.8357 0.679382 23.2538 0.679382C20.6718 0.679382 18.1692 1.57127 16.1692 3.20415C15.2388 3.9651 14.4867 4.92098 13.9661 6.00432C13.4455 7.08767 13.169 8.27207 13.1562 9.47395C13.169 10.6758 13.4455 11.8602 13.9661 12.9436C14.4867 14.0269 15.2388 14.9828 16.1692 15.7437C16.5179 16.0421 16.8867 16.3161 17.2732 16.5637C16.5607 17.638 15.726 18.6259 14.7857 19.5077C16.784 19.3433 18.7354 18.8152 20.5438 17.9494C21.4316 18.1621 22.3414 18.2691 23.2543 18.268C25.8421 18.2962 28.3549 17.399 30.3395 15.738C31.2699 14.9771 32.0219 14.0212 32.5425 12.9378C33.0631 11.8545 33.3396 10.6701 33.3525 9.4682C33.3386 8.26721 33.0616 7.08386 32.5408 6.00157C32.02 4.91927 31.2682 3.96437 30.3383 3.20415V3.20415ZM23.2532 16.3141C18.7682 16.3141 15.11 13.246 15.11 9.47395C15.11 5.70195 18.7636 2.62915 23.2532 2.62915C27.7428 2.62915 31.3963 5.69735 31.3963 9.46935C31.3963 13.2413 27.7439 16.3141 23.2532 16.3141V16.3141Z" fill="white"/>
<path d="M23.2532 10.7711C23.9728 10.7711 24.5561 10.1878 24.5561 9.46817C24.5561 8.74857 23.9728 8.16522 23.2532 8.16522C22.5336 8.16522 21.9502 8.74857 21.9502 9.46817C21.9502 10.1878 22.5336 10.7711 23.2532 10.7711Z" fill="white"/>
<path d="M18.6934 10.7711C19.413 10.7711 19.9964 10.1878 19.9964 9.46817C19.9964 8.74857 19.413 8.16522 18.6934 8.16522C17.9738 8.16522 17.3905 8.74857 17.3905 9.46817C17.3905 10.1878 17.9738 10.7711 18.6934 10.7711Z" fill="white"/>
<path d="M27.8141 10.7711C28.5337 10.7711 29.117 10.1878 29.117 9.46817C29.117 8.74857 28.5337 8.16522 27.8141 8.16522C27.0945 8.16522 26.5111 8.74857 26.5111 9.46817C26.5111 10.1878 27.0945 10.7711 27.8141 10.7711Z" fill="white"/>
</svg>
