<svg width="23" height="32" viewBox="0 0 23 32" fill="none" xmlns="http://www.w3.org/2000/svg">
<path d="M11.5252 0.424684C9.5786 0.423812 7.66716 0.943038 5.98857 1.92865C4.30998 2.91426 2.9252 4.33046 1.9775 6.03074C1.0298 7.73102 0.553593 9.65364 0.598137 11.5997C0.642681 13.5457 1.20636 15.4445 2.23086 17.0997L10.903 31.0745C10.9848 31.2061 11.0988 31.3147 11.2342 31.3899C11.3696 31.4652 11.522 31.5046 11.677 31.5046H11.6839C11.84 31.5033 11.9932 31.4619 12.1287 31.3844C12.2643 31.3069 12.3776 31.1958 12.4578 31.0618L20.9092 16.9513C21.8997 15.2928 22.4327 13.4013 22.4539 11.4696C22.4751 9.53794 21.9837 7.63518 21.0299 5.9553C20.076 4.27542 18.6938 2.8785 17.0241 1.90694C15.3544 0.935371 13.457 0.423908 11.5252 0.424684ZM19.3452 16.0118L11.6632 28.8412L3.77876 16.1348C2.9276 14.7601 2.45763 13.1837 2.4171 11.5673C2.37658 9.95095 2.76694 8.35292 3.54814 6.93729C4.32933 5.52166 5.4732 4.33944 6.86231 3.512C8.25142 2.68456 9.83571 2.24171 11.4525 2.22893C13.0693 2.21615 14.6604 2.63389 16.0625 3.43927C17.4645 4.24465 18.6269 5.40864 19.4304 6.81174C20.2338 8.21485 20.6494 9.80651 20.6345 11.4233C20.6195 13.0401 20.1745 14.6238 19.3452 16.0118Z" fill="black"/>
<path d="M11.5252 5.88715C10.4448 5.88715 9.38866 6.20752 8.49036 6.80775C7.59205 7.40797 6.89191 8.26109 6.47847 9.25923C6.06503 10.2574 5.95684 11.3557 6.16761 12.4153C6.37839 13.475 6.89864 14.4483 7.66258 15.2122C8.42653 15.9762 9.39986 16.4964 10.4595 16.7072C11.5191 16.918 12.6174 16.8098 13.6156 16.3963C14.6137 15.9829 15.4668 15.2828 16.0671 14.3845C16.6673 13.4861 16.9877 12.43 16.9877 11.3496C16.9861 9.90137 16.4101 8.51285 15.3861 7.48876C14.362 6.46467 12.9734 5.88867 11.5252 5.88715ZM11.5252 15.0032C10.8023 15.0043 10.0954 14.791 9.4938 14.3903C8.89222 13.9895 8.42304 13.4193 8.14563 12.7518C7.86822 12.0843 7.79504 11.3495 7.93536 10.6404C8.07568 9.93131 8.42319 9.27977 8.93392 8.76824C9.44465 8.2567 10.0956 7.90816 10.8045 7.76672C11.5134 7.62528 12.2483 7.6973 12.9162 7.97366C13.5842 8.25002 14.1551 8.7183 14.5568 9.31925C14.9585 9.9202 15.173 10.6268 15.173 11.3496C15.172 12.3174 14.7876 13.2452 14.1039 13.9301C13.4202 14.6149 12.4929 15.0008 11.5252 15.0032Z" fill="black"/>
</svg>
