<svg width="35" height="35" viewBox="0 0 35 35" fill="none" xmlns="http://www.w3.org/2000/svg">
<path d="M24.1869 11.5127L23.8212 10.3098C23.645 9.79397 23.3119 9.3462 22.8685 9.02914C22.4251 8.71209 21.8937 8.54163 21.3487 8.54163C20.8036 8.54163 20.2722 8.71209 19.8288 9.02914C19.3855 9.3462 19.0524 9.79397 18.8762 10.3098L18.5105 11.5127C18.2028 12.5272 18.1382 13.5999 18.3219 14.6441C18.4046 15.0781 18.5838 15.488 18.8464 15.8433C19.109 16.1987 19.4481 16.4904 19.8387 16.6969L19.4293 25.8474C19.4028 26.1003 19.4301 26.3559 19.5094 26.5975C19.5887 26.8391 19.7182 27.0612 19.8893 27.2493C20.0656 27.442 20.278 27.5981 20.5146 27.7087C20.7512 27.8193 21.0072 27.8822 21.2681 27.8939C21.529 27.9055 21.7896 27.8656 22.0351 27.7765C22.2806 27.6875 22.5061 27.5509 22.6988 27.3746C22.7425 27.3347 22.7843 27.293 22.8241 27.2493C22.9916 27.0665 23.119 26.8508 23.1982 26.6159C23.2774 26.381 23.3067 26.1322 23.2841 25.8854L22.8724 16.6957C23.2625 16.4892 23.6012 16.1975 23.8634 15.8424C24.1255 15.4873 24.3045 15.0777 24.387 14.6441C24.5669 13.599 24.4984 12.5263 24.1869 11.5127V11.5127ZM23.2542 14.4452C23.1937 14.7555 23.0528 15.0445 22.8455 15.2832C22.6383 15.522 22.3719 15.7021 22.0732 15.8056C21.9612 15.8487 21.8655 15.9258 21.7995 16.026C21.7335 16.1262 21.7005 16.2446 21.7052 16.3645L22.1376 25.9751C22.1474 26.0681 22.1373 26.1621 22.108 26.251C22.0786 26.3398 22.0307 26.4214 21.9674 26.4903C21.8027 26.6532 21.5803 26.7446 21.3487 26.7446C21.117 26.7446 20.8947 26.6532 20.73 26.4903C20.6633 26.4159 20.6137 26.3279 20.5847 26.2323C20.5556 26.1368 20.5479 26.036 20.5621 25.9371L20.991 16.3645C20.9957 16.2446 20.9627 16.1262 20.8967 16.026C20.8307 15.9258 20.735 15.8487 20.623 15.8056C20.3243 15.7021 20.058 15.522 19.8507 15.2832C19.6434 15.0445 19.5025 14.7555 19.442 14.4452C19.2897 13.5785 19.3433 12.6883 19.5984 11.8462L19.9641 10.6421C20.0689 10.3593 20.2577 10.1154 20.5052 9.94315C20.7528 9.7709 21.0471 9.67856 21.3487 9.67856C21.6502 9.67856 21.9446 9.7709 22.1921 9.94315C22.4396 10.1154 22.6285 10.3593 22.7333 10.6421L23.099 11.8462C23.3546 12.6881 23.4089 13.5783 23.2577 14.4452H23.2542Z" fill="black"/>
<path d="M15.3732 8.53985C15.2207 8.53985 15.0744 8.60043 14.9666 8.70827C14.8587 8.8161 14.7982 8.96235 14.7982 9.11485V14.0024L13.2572 15.5433C13.201 15.5998 13.1572 15.6672 13.1285 15.7415C13.0998 15.8157 13.0868 15.8951 13.0904 15.9746L13.5884 25.9371C13.5936 26.0425 13.5772 26.1479 13.5402 26.2468C13.5032 26.3456 13.4464 26.4359 13.3733 26.5121C13.2225 26.6616 13.0187 26.7456 12.8064 26.7456C12.594 26.7456 12.3902 26.6616 12.2394 26.5121C12.1663 26.4359 12.1095 26.3456 12.0725 26.2468C12.0356 26.1479 12.0192 26.0425 12.0244 25.9371L12.5258 15.9746C12.5293 15.8951 12.5163 15.8157 12.4876 15.7415C12.4589 15.6672 12.4151 15.5998 12.359 15.5433L10.8169 14.0024V9.11485C10.8285 9.03331 10.8224 8.95023 10.7992 8.87122C10.7759 8.79222 10.7359 8.71914 10.6819 8.65692C10.6279 8.59471 10.5612 8.54482 10.4863 8.51063C10.4114 8.47644 10.33 8.45874 10.2476 8.45874C10.1652 8.45874 10.0838 8.47644 10.0089 8.51063C9.93397 8.54482 9.86726 8.59471 9.81328 8.65692C9.75931 8.71914 9.71933 8.79222 9.69605 8.87122C9.67277 8.95023 9.66674 9.03331 9.67836 9.11485V14.2381C9.67899 14.389 9.73889 14.5335 9.84511 14.6406L11.3746 16.1701L10.8893 25.8819C10.8665 26.39 11.0459 26.8865 11.3884 27.2626C11.7308 27.6388 12.2084 27.8639 12.7164 27.8887C13.2245 27.9135 13.7217 27.7359 14.0991 27.3949C14.4766 27.0539 14.7036 26.5773 14.7303 26.0693C14.7303 26.0072 14.7303 25.9447 14.7303 25.8819L14.245 16.1701L15.7745 14.6406C15.8807 14.5335 15.9406 14.389 15.9413 14.2381V9.11485C15.9413 8.96354 15.8816 8.81833 15.7753 8.71069C15.6689 8.60305 15.5245 8.54167 15.3732 8.53985Z" fill="black"/>
<path d="M11.9634 8.53992C11.8109 8.53992 11.6647 8.6005 11.5568 8.70833C11.449 8.81616 11.3884 8.96242 11.3884 9.11492V13.6689C11.408 13.806 11.4763 13.9314 11.5809 14.0221C11.6854 14.1129 11.8192 14.1628 11.9577 14.1628C12.0961 14.1628 12.2299 14.1129 12.3345 14.0221C12.4391 13.9314 12.5074 13.806 12.5269 13.6689V9.11492C12.527 8.96439 12.468 8.81985 12.3626 8.71234C12.2572 8.60483 12.1139 8.54293 11.9634 8.53992Z" fill="black"/>
<path d="M13.6712 8.53992C13.5187 8.53992 13.3724 8.6005 13.2646 8.70833C13.1568 8.81616 13.0962 8.96242 13.0962 9.11492V13.6689C13.1157 13.806 13.184 13.9314 13.2886 14.0221C13.3932 14.1129 13.527 14.1628 13.6654 14.1628C13.8039 14.1628 13.9377 14.1129 14.0423 14.0221C14.1468 13.9314 14.2152 13.806 14.2347 13.6689V9.11492C14.2347 8.96439 14.1757 8.81985 14.0704 8.71234C13.965 8.60483 13.8217 8.54293 13.6712 8.53992Z" fill="black"/>
<path d="M17.081 1.54943e-07C13.703 -0.000454755 10.4008 1.0008 7.59194 2.87715C4.78307 4.7535 2.5937 7.42066 1.3007 10.5413C0.00770738 13.662 -0.330835 17.096 0.327889 20.4091C0.986613 23.7222 2.61301 26.7655 5.00142 29.1543C7.38982 31.543 10.4329 33.1698 13.7459 33.829C17.0589 34.4881 20.493 34.1501 23.6138 32.8575C26.7347 31.5649 29.4021 29.3759 31.2789 26.5673C33.1556 23.7587 34.1573 20.4566 34.1573 17.0786C34.1573 12.5495 32.3583 8.20584 29.1559 5.00303C25.9535 1.80023 21.6101 0.000610099 17.081 1.54943e-07V1.54943e-07ZM17.081 33.0188C13.9283 33.0188 10.8464 32.0839 8.22508 30.3324C5.60374 28.5809 3.56065 26.0914 2.35418 23.1787C1.14771 20.266 0.832039 17.061 1.44709 13.9689C2.06215 10.8768 3.5803 8.03653 5.80957 5.80726C8.03884 3.57799 10.8791 2.05984 13.9712 1.44479C17.0633 0.829731 20.2683 1.1454 23.181 2.35187C26.0937 3.55834 28.5832 5.60143 30.3347 8.22278C32.0862 10.8441 33.0211 13.926 33.0211 17.0786C33.0211 21.3062 31.3417 25.3607 28.3523 28.35C25.363 31.3394 21.3085 33.0188 17.081 33.0188V33.0188Z" fill="black"/>
<path d="M18.929 27.7701C18.913 27.6203 18.8388 27.4828 18.7225 27.3871C18.6061 27.2914 18.4569 27.2452 18.3068 27.2584H18.285C17.4827 27.3516 16.6723 27.3516 15.87 27.2584C15.7905 27.2378 15.7075 27.2346 15.6266 27.2488C15.5457 27.263 15.4688 27.2944 15.4011 27.3408C15.3333 27.3872 15.2763 27.4476 15.2339 27.5179C15.1914 27.5882 15.1645 27.6668 15.155 27.7484C15.1455 27.8299 15.1535 27.9126 15.1786 27.9908C15.2037 28.069 15.2453 28.1409 15.3005 28.2017C15.3557 28.2625 15.4233 28.3107 15.4987 28.3432C15.5741 28.3757 15.6556 28.3916 15.7377 28.39C16.6267 28.4938 17.5248 28.4938 18.4138 28.39C18.5637 28.3748 18.7018 28.3014 18.7982 28.1855C18.8945 28.0695 18.9415 27.9204 18.929 27.7701V27.7701Z" fill="black"/>
<path d="M25.7898 9.74276C25.6918 9.62754 25.5524 9.55559 25.4018 9.54246C25.2511 9.52933 25.1013 9.57609 24.9848 9.67262V9.67262C24.8699 9.77093 24.7984 9.91053 24.7857 10.0612C24.773 10.2119 24.8202 10.3615 24.917 10.4776C26.5726 12.4429 27.4294 14.9585 27.3175 17.5258C27.2057 20.0931 26.1334 22.5246 24.3132 24.3386C24.2473 24.388 24.1928 24.451 24.1534 24.5233C24.1139 24.5957 24.0905 24.6756 24.0847 24.7578C24.0789 24.84 24.0907 24.9225 24.1195 24.9996C24.1484 25.0768 24.1934 25.1469 24.2516 25.2052C24.3099 25.2634 24.38 25.3085 24.4572 25.3373C24.5343 25.3661 24.6168 25.378 24.699 25.3721C24.7812 25.3663 24.8611 25.3429 24.9335 25.3034C25.0058 25.264 25.0688 25.2095 25.1183 25.1436C27.141 23.1284 28.3327 20.4267 28.4571 17.5741C28.5815 14.7216 27.6295 11.9264 25.7898 9.74276V9.74276Z" fill="black"/>
<path d="M19.7663 6.00868C17.5414 5.47548 15.2081 5.61884 13.0652 6.42037C12.9919 6.44394 12.9241 6.48215 12.866 6.53269C12.8078 6.58323 12.7605 6.64505 12.727 6.71439C12.6934 6.78373 12.6743 6.85916 12.6708 6.93611C12.6672 7.01306 12.6793 7.08994 12.7064 7.16207C12.7334 7.23421 12.7748 7.3001 12.828 7.35577C12.8813 7.41144 12.9453 7.45573 13.0161 7.48595C13.087 7.51616 13.1632 7.53169 13.2403 7.53157C13.3173 7.53146 13.3935 7.5157 13.4643 7.48527C15.3939 6.7636 17.495 6.63466 19.4983 7.11497C19.5749 7.14558 19.6571 7.15938 19.7394 7.15543C19.8218 7.15148 19.9023 7.12988 19.9755 7.09208C20.0488 7.05429 20.1131 7.00118 20.164 6.93637C20.2149 6.87156 20.2513 6.79655 20.2707 6.71644C20.2901 6.63633 20.2921 6.55299 20.2764 6.47206C20.2608 6.39112 20.2279 6.3145 20.1801 6.24738C20.1323 6.18025 20.0706 6.12419 19.9992 6.08301C19.9278 6.04182 19.8483 6.01648 19.7663 6.00868V6.00868Z" fill="black"/>
<path d="M9.8222 24.3087C8.10127 22.583 7.05177 20.3005 6.86208 17.8708C6.67239 15.4411 7.35494 13.0233 8.7872 11.0515C8.85375 10.9303 8.87436 10.7891 8.84526 10.6539C8.81617 10.5187 8.73931 10.3985 8.62878 10.3153C8.51825 10.2322 8.38146 10.1917 8.24349 10.2012C8.10551 10.2107 7.97559 10.2697 7.87755 10.3673L7.86719 10.381C6.27363 12.5716 5.51333 15.2585 5.72284 17.9592C5.93236 20.6599 7.09797 23.1975 9.0103 25.116C9.05973 25.1819 9.12273 25.2364 9.19507 25.2759C9.2674 25.3153 9.34736 25.3387 9.42954 25.3446C9.51171 25.3504 9.59418 25.3385 9.67136 25.3097C9.74854 25.2809 9.81863 25.2358 9.87689 25.1776C9.93514 25.1193 9.98019 25.0492 10.009 24.9721C10.0378 24.8949 10.0497 24.8124 10.0439 24.7302C10.038 24.6481 10.0146 24.5681 9.97515 24.4958C9.93571 24.4234 9.8812 24.3604 9.8153 24.311L9.8222 24.3087Z" fill="black"/>
</svg>
