<svg width="32" height="26" viewBox="0 0 32 26" fill="none" xmlns="http://www.w3.org/2000/svg">
<path d="M29.6597 24.3317H29.1422V10.8215C29.7388 10.4393 30.2297 9.91324 30.5699 9.29171C30.9101 8.67018 31.0887 7.97311 31.0891 7.26456C31.0897 7.18398 31.069 7.10467 31.0293 7.03456L27.416 0.709562C27.2894 0.492782 27.108 0.313112 26.89 0.188574C26.672 0.0640353 26.4251 -0.000994104 26.174 1.14879e-05H4.91396C4.66209 0.000257321 4.41473 0.0669447 4.19687 0.193342C3.979 0.31974 3.79834 0.501378 3.67311 0.719915L0.059811 7.04492C0.020076 7.11502 -0.00054555 7.19433 1.0973e-05 7.27491C0.00217973 7.98171 0.181529 8.67667 0.521653 9.29625C0.861778 9.91583 1.35182 10.4402 1.94696 10.8215V24.3317H1.42946C1.31981 24.3473 1.21948 24.402 1.1469 24.4857C1.07431 24.5693 1.03435 24.6764 1.03435 24.7871C1.03435 24.8979 1.07431 25.0049 1.1469 25.0886C1.21948 25.1722 1.31981 25.2269 1.42946 25.2425H29.6597C29.7693 25.2269 29.8696 25.1722 29.9422 25.0886C30.0148 25.0049 30.0548 24.8979 30.0548 24.7871C30.0548 24.6764 30.0148 24.5693 29.9422 24.4857C29.8696 24.402 29.7693 24.3473 29.6597 24.3317V24.3317ZM0.941861 7.71996H2.40236C2.46759 7.72926 2.53406 7.72443 2.59727 7.70581C2.66047 7.68718 2.71894 7.6552 2.76871 7.61202C2.81848 7.56884 2.85839 7.51547 2.88574 7.45552C2.9131 7.39558 2.92725 7.33045 2.92725 7.26456C2.92725 7.19867 2.9131 7.13355 2.88574 7.07361C2.85839 7.01366 2.81848 6.96029 2.76871 6.91711C2.71894 6.87393 2.66047 6.84194 2.59727 6.82332C2.53406 6.8047 2.46759 6.79987 2.40236 6.80916H1.23971L4.45971 1.16611C4.50514 1.08695 4.57062 1.02115 4.64955 0.97533C4.72848 0.929504 4.81809 0.90527 4.90936 0.905065H26.174C26.2653 0.905154 26.355 0.929339 26.4339 0.975176C26.5129 1.02101 26.5783 1.08687 26.6237 1.16611L29.8437 6.80916H28.6856C28.6204 6.79987 28.5539 6.8047 28.4907 6.82332C28.4275 6.84194 28.369 6.87393 28.3193 6.91711C28.2695 6.96029 28.2296 7.01366 28.2022 7.07361C28.1749 7.13355 28.1607 7.19867 28.1607 7.26456C28.1607 7.33045 28.1749 7.39558 28.2022 7.45552C28.2296 7.51547 28.2695 7.56884 28.3193 7.61202C28.369 7.6552 28.4275 7.68718 28.4907 7.70581C28.5539 7.72443 28.6204 7.72926 28.6856 7.71996H30.1461C30.0358 8.51279 29.6425 9.23899 29.0388 9.76457C28.4351 10.2902 27.6616 10.5796 26.8611 10.5796C26.0607 10.5796 25.2872 10.2902 24.6835 9.76457C24.0797 9.23899 23.6864 8.51279 23.5762 7.71996H26.7398C26.805 7.72926 26.8715 7.72443 26.9347 7.70581C26.9979 7.68718 27.0564 7.6552 27.1062 7.61202C27.1559 7.56884 27.1958 7.51547 27.2232 7.45552C27.2505 7.39558 27.2647 7.33045 27.2647 7.26456C27.2647 7.19867 27.2505 7.13355 27.2232 7.07361C27.1958 7.01366 27.1559 6.96029 27.1062 6.91711C27.0564 6.87393 26.9979 6.84194 26.9347 6.82332C26.8715 6.8047 26.805 6.79987 26.7398 6.80916H4.34931C4.28408 6.79987 4.21761 6.8047 4.15441 6.82332C4.0912 6.84194 4.03274 6.87393 3.98296 6.91711C3.93319 6.96029 3.89328 7.01366 3.86593 7.07361C3.83858 7.13355 3.82442 7.19867 3.82442 7.26456C3.82442 7.33045 3.83858 7.39558 3.86593 7.45552C3.89328 7.51547 3.93319 7.56884 3.98296 7.61202C4.03274 7.6552 4.0912 7.68718 4.15441 7.70581C4.21761 7.72443 4.28408 7.72926 4.34931 7.71996H7.51181C7.40153 8.51279 7.00824 9.23899 6.4045 9.76457C5.80075 10.2902 5.0273 10.5796 4.22684 10.5796C3.42637 10.5796 2.65292 10.2902 2.04917 9.76457C1.44543 9.23899 1.05214 8.51279 0.941861 7.71996V7.71996ZM22.601 7.71996C22.4907 8.51279 22.0974 9.23899 21.4936 9.76457C20.8899 10.2902 20.1164 10.5796 19.316 10.5796C18.5155 10.5796 17.7421 10.2902 17.1383 9.76457C16.5346 9.23899 16.1413 8.51279 16.031 7.71996H22.601ZM15.057 7.71996C14.9467 8.51279 14.5534 9.23899 13.9496 9.76457C13.3459 10.2902 12.5724 10.5796 11.772 10.5796C10.9715 10.5796 10.1981 10.2902 9.59432 9.76457C8.99058 9.23899 8.59729 8.51279 8.48701 7.71996H15.057ZM25.7968 24.3317H20.8668V22.8091H25.7968V24.3317ZM25.7968 21.8983H20.8668V13.5608H25.7968V21.8983ZM28.2302 24.3317H26.7076V13.11C26.7076 12.988 26.6591 12.871 26.5729 12.7847C26.4866 12.6985 26.3696 12.65 26.2476 12.65H20.4114C20.2894 12.65 20.1724 12.6985 20.0861 12.7847C19.9998 12.871 19.9514 12.988 19.9514 13.11V24.3363H2.85776V11.2631C3.82275 11.5946 4.87514 11.5655 5.82033 11.1812C6.76552 10.7968 7.53959 10.0833 7.99941 9.17241C8.35202 9.87019 8.89127 10.4565 9.55719 10.8661C10.2231 11.2757 10.9896 11.4926 11.7714 11.4926C12.5532 11.4926 13.3197 11.2757 13.9856 10.8661C14.6516 10.4565 15.1908 9.87019 15.5434 9.17241C15.896 9.87019 16.4353 10.4565 17.1012 10.8661C17.7671 11.2757 18.5336 11.4926 19.3154 11.4926C20.0972 11.4926 20.8637 11.2757 21.5296 10.8661C22.1956 10.4565 22.7348 9.87019 23.0874 9.17241C23.5474 10.0831 24.3215 10.7965 25.2666 11.1808C26.2118 11.5651 27.2641 11.5944 28.2291 11.2631L28.2302 24.3317Z" fill="black"/>
<path d="M17.9779 12.65H4.83573C4.77533 12.65 4.71551 12.6619 4.6597 12.685C4.60389 12.7082 4.55318 12.742 4.51046 12.7848C4.46775 12.8275 4.43387 12.8782 4.41075 12.934C4.38763 12.9898 4.37573 13.0496 4.37573 13.11V22.3583C4.37573 22.4188 4.38763 22.4786 4.41075 22.5344C4.43387 22.5902 4.46775 22.6409 4.51046 22.6836C4.55318 22.7263 4.60389 22.7602 4.6597 22.7833C4.71551 22.8064 4.77533 22.8183 4.83573 22.8183H17.9779C18.0383 22.8183 18.0982 22.8064 18.154 22.7833C18.2098 22.7602 18.2605 22.7263 18.3032 22.6836C18.3459 22.6409 18.3798 22.5902 18.4029 22.5344C18.426 22.4786 18.4379 22.4188 18.4379 22.3583V13.11C18.4379 13.0496 18.426 12.9898 18.4029 12.934C18.3798 12.8782 18.3459 12.8275 18.3032 12.7848C18.2605 12.742 18.2098 12.7082 18.154 12.685C18.0982 12.6619 18.0383 12.65 17.9779 12.65V12.65ZM17.5179 21.8984H5.29113V13.5609H17.5225L17.5179 21.8984Z" fill="black"/>
</svg>
