<svg width="22" height="29" viewBox="0 0 22 29" fill="none" xmlns="http://www.w3.org/2000/svg">
<path d="M21.1267 0.739525C20.8916 0.631182 20.6299 0.594137 20.374 0.632972C20.1181 0.671808 19.8792 0.78482 19.6869 0.958025L17.8193 2.61057L15.2812 0.342775C15.035 0.122061 14.716 0 14.3854 0C14.0547 0 13.7357 0.122061 13.4895 0.342775L10.9595 2.61057L8.41802 0.342775C8.17171 0.122298 7.85275 0.000393946 7.52217 0.000393946C7.1916 0.000393946 6.87263 0.122298 6.62632 0.342775L4.08827 2.61057L2.22067 0.959175C2.02772 0.788183 1.78939 0.676712 1.53446 0.638226C1.27954 0.59974 1.01892 0.635884 0.784088 0.742294C0.549257 0.848703 0.350258 1.02083 0.211123 1.23788C0.0719882 1.45492 -0.00133227 1.70761 2.114e-05 1.96542V26.7318C-0.00143124 26.9901 0.0719825 27.2432 0.211378 27.4606C0.350773 27.678 0.550176 27.8504 0.78547 27.9568C1.02076 28.0633 1.28186 28.0993 1.53718 28.0605C1.7925 28.0216 2.03111 27.9097 2.22412 27.7381L4.08942 26.0867L6.62747 28.3568C6.87367 28.5775 7.19267 28.6996 7.52332 28.6996C7.85397 28.6996 8.17297 28.5775 8.41917 28.3568L10.9492 26.089L13.4907 28.3568C13.737 28.5773 14.0559 28.6992 14.3865 28.6992C14.7171 28.6992 15.0361 28.5773 15.2824 28.3568L17.8204 26.0867L19.688 27.7381C19.8809 27.9094 20.1194 28.0212 20.3745 28.0599C20.6296 28.0986 20.8905 28.0625 21.1255 27.9561C21.3606 27.8496 21.5597 27.6773 21.6989 27.4601C21.8381 27.2428 21.9114 26.9899 21.9098 26.7318V1.96542C21.9134 1.7069 21.8411 1.453 21.7019 1.23512C21.5627 1.01724 21.3628 0.844941 21.1267 0.739525V0.739525ZM18.7117 25.0793C18.4659 24.8605 18.1483 24.7396 17.8193 24.7396C17.4902 24.7396 17.1726 24.8605 16.9269 25.0793L14.3888 27.3494L11.8531 25.0816C11.6068 24.8611 11.2878 24.7392 10.9572 24.7392C10.6266 24.7392 10.3077 24.8611 10.0614 25.0816L7.52217 27.3551L4.98297 25.085C4.73818 24.8661 4.42129 24.745 4.09287 24.745C3.76446 24.745 3.44756 24.8661 3.20277 25.085L1.34667 26.7307V23.1484L1.33977 1.96542L3.20277 3.61682C3.44853 3.83563 3.76612 3.95652 4.09517 3.95652C4.42422 3.95652 4.74181 3.83563 4.98757 3.61682L7.52562 1.34672L10.0614 3.61452C10.3077 3.835 10.6266 3.95691 10.9572 3.95691C11.2878 3.95691 11.6068 3.835 11.8531 3.61452L14.3888 1.34672L16.928 3.61682C17.1728 3.83577 17.4897 3.95681 17.8181 3.95681C18.1465 3.95681 18.4634 3.83577 18.7082 3.61682L20.5689 1.96542V18.9854L20.5758 26.7261L18.7117 25.0793Z" fill="black"/>
<path d="M17.326 13.6758H4.58404C4.40577 13.6758 4.2348 13.7466 4.10874 13.8727C3.98268 13.9987 3.91187 14.1697 3.91187 14.348C3.91187 14.5262 3.98268 14.6972 4.10874 14.8233C4.2348 14.9493 4.40577 15.0201 4.58404 15.0201H17.326C17.5043 15.0201 17.6753 14.9493 17.8013 14.8233C17.9274 14.6972 17.9982 14.5262 17.9982 14.348C17.9982 14.1697 17.9274 13.9987 17.8013 13.8727C17.6753 13.7466 17.5043 13.6758 17.326 13.6758V13.6758Z" fill="black"/>
<path d="M11.277 9.64392H4.58404C4.40577 9.64392 4.2348 9.71475 4.10874 9.84081C3.98268 9.96686 3.91187 10.1378 3.91187 10.3161C3.91187 10.4944 3.98268 10.6654 4.10874 10.7914C4.2348 10.9175 4.40577 10.9883 4.58404 10.9883H11.277C11.4553 10.9883 11.6263 10.9175 11.7523 10.7914C11.8784 10.6654 11.9492 10.4944 11.9492 10.3161C11.9492 10.1378 11.8784 9.96686 11.7523 9.84081C11.6263 9.71475 11.4553 9.64392 11.277 9.64392Z" fill="black"/>
<path d="M17.326 17.7089H4.58404C4.40577 17.7089 4.2348 17.7797 4.10874 17.9057C3.98268 18.0318 3.91187 18.2028 3.91187 18.381C3.91187 18.5593 3.98268 18.7303 4.10874 18.8563C4.2348 18.9824 4.40577 19.0532 4.58404 19.0532H17.326C17.5043 19.0532 17.6753 18.9824 17.8013 18.8563C17.9274 18.7303 17.9982 18.5593 17.9982 18.381C17.9982 18.2028 17.9274 18.0318 17.8013 17.9057C17.6753 17.7797 17.5043 17.7089 17.326 17.7089Z" fill="black"/>
</svg>
