<svg width="1024" height="1024" viewBox="0 0 1024 1024" fill="none" xmlns="http://www.w3.org/2000/svg">
<path d="M545.654 423.162C543.283 406.54 528.814 394 511.998 394C506.645 394.01 501.369 395.279 496.598 397.705C491.826 400.131 487.691 403.645 484.529 407.964C484.213 408.388 483.985 408.869 483.856 409.382C483.728 409.894 483.703 410.427 483.782 410.949C483.86 411.472 484.042 411.973 484.316 412.425C484.589 412.876 484.95 413.269 485.377 413.581C485.803 413.893 486.287 414.117 486.801 414.24C487.314 414.364 487.847 414.384 488.369 414.301C488.89 414.217 489.39 414.031 489.839 413.753C490.288 413.475 490.678 413.111 490.986 412.682C494.032 408.504 498.254 405.329 503.112 403.563C507.971 401.796 513.246 401.518 518.264 402.764C523.282 404.01 527.814 406.724 531.282 410.558C534.75 414.392 536.997 419.173 537.734 424.29C537.871 425.243 538.346 426.114 539.072 426.745C539.799 427.376 540.728 427.724 541.69 427.726C541.881 427.725 542.071 427.712 542.26 427.686C543.31 427.536 544.257 426.975 544.894 426.126C545.53 425.278 545.804 424.212 545.654 423.162V423.162Z" fill="url(#paint0_linear_31_64)"/>
<path d="M603.427 467.939L591.427 447.938C591.072 447.345 590.569 446.855 589.968 446.515C589.367 446.174 588.688 445.996 587.997 445.996H576.497C575.967 445.989 575.441 446.087 574.95 446.284C574.458 446.482 574.01 446.775 573.633 447.147C573.255 447.519 572.956 447.963 572.751 448.452C572.547 448.94 572.441 449.465 572.441 449.995C572.441 450.525 572.547 451.05 572.751 451.539C572.956 452.028 573.255 452.471 573.633 452.843C574.01 453.215 574.458 453.509 574.95 453.706C575.441 453.904 575.967 454.002 576.497 453.994H585.733L592.933 465.994H431.063L438.263 453.997H442.499C443.029 454.004 443.555 453.906 444.047 453.709C444.539 453.511 444.986 453.218 445.364 452.846C445.741 452.473 446.041 452.03 446.245 451.541C446.45 451.052 446.555 450.528 446.555 449.998C446.555 449.468 446.45 448.943 446.245 448.454C446.041 447.965 445.741 447.522 445.364 447.15C444.986 446.777 444.539 446.484 444.047 446.287C443.555 446.089 443.029 445.991 442.499 445.999H435.999C435.308 445.998 434.629 446.176 434.028 446.516C433.427 446.856 432.924 447.346 432.569 447.938L420.568 467.939C420.204 468.546 420.008 469.239 419.999 469.947C419.99 470.655 420.169 471.352 420.518 471.968C420.866 472.584 421.372 473.097 421.984 473.454C422.595 473.81 423.29 473.998 423.998 473.999H599.994C600.702 473.998 601.397 473.81 602.009 473.454C602.62 473.097 603.126 472.584 603.475 471.968C603.824 471.352 604.003 470.655 603.994 469.947C603.985 469.239 603.788 468.546 603.424 467.939H603.427Z" fill="url(#paint1_linear_31_64)"/>
<path d="M583.488 431.058C583.211 430.611 582.849 430.223 582.422 429.917C581.995 429.61 581.512 429.391 581 429.272L526.474 416.518C525.963 416.398 525.433 416.38 524.914 416.465C524.396 416.55 523.899 416.736 523.453 417.013C523.007 417.291 522.619 417.653 522.313 418.08C522.007 418.507 521.788 418.99 521.669 419.502L517.555 437.08C517.314 438.113 517.493 439.199 518.052 440.1C518.612 441.001 519.507 441.643 520.54 441.884C521.573 442.126 522.659 441.947 523.56 441.387C524.461 440.827 525.103 439.933 525.344 438.9L528.546 425.218L575.283 436.15L567.939 467.55C567.819 468.061 567.801 468.591 567.886 469.11C567.972 469.628 568.158 470.124 568.435 470.57C568.712 471.017 569.074 471.404 569.501 471.71C569.928 472.016 570.411 472.235 570.923 472.354C571.223 472.424 571.53 472.459 571.839 472.459C572.74 472.459 573.615 472.153 574.321 471.593C575.027 471.032 575.522 470.249 575.727 469.371L583.983 434.077C584.103 433.566 584.122 433.036 584.037 432.518C583.952 432 583.766 431.503 583.488 431.058V431.058Z" fill="url(#paint2_linear_31_64)"/>
<path d="M514.113 440.513L510.469 409.686C510.344 408.633 509.806 407.672 508.973 407.015C508.14 406.358 507.08 406.059 506.026 406.183L439.125 414.091C438.072 414.216 437.111 414.754 436.455 415.587C435.798 416.42 435.499 417.48 435.624 418.533L441.7 469.946C441.815 470.918 442.282 471.815 443.013 472.466C443.744 473.117 444.689 473.477 445.668 473.478C445.827 473.478 445.986 473.468 446.144 473.45C447.197 473.325 448.157 472.786 448.814 471.953C449.47 471.121 449.769 470.061 449.645 469.008L444.038 421.564L502.995 414.596L506.17 441.449C506.298 442.5 506.837 443.456 507.669 444.11C508.501 444.764 509.558 445.061 510.609 444.938C511.66 444.814 512.618 444.279 513.276 443.449C513.933 442.62 514.235 441.564 514.115 440.513H514.113Z" fill="url(#paint3_linear_31_64)"/>
<path d="M545.747 468.478L537.808 435.463C537.686 434.952 537.464 434.471 537.155 434.046C536.846 433.621 536.456 433.261 536.009 432.987C535.561 432.713 535.063 432.53 534.544 432.448C534.026 432.366 533.496 432.388 532.985 432.511L468.547 448.008C467.516 448.256 466.625 448.903 466.071 449.807C465.517 450.712 465.345 451.799 465.592 452.831L469.56 469.333C469.681 469.845 469.902 470.329 470.21 470.756C470.519 471.183 470.908 471.546 471.357 471.822C471.805 472.098 472.304 472.283 472.824 472.366C473.344 472.449 473.876 472.428 474.388 472.305C474.9 472.182 475.383 471.959 475.809 471.648C476.235 471.338 476.595 470.947 476.869 470.497C477.143 470.047 477.326 469.548 477.406 469.027C477.487 468.507 477.464 467.975 477.339 467.464L474.304 454.85L530.963 441.225L537.967 470.351C538.22 471.378 538.868 472.264 539.772 472.814C540.676 473.364 541.761 473.534 542.789 473.286C543.818 473.039 544.706 472.394 545.261 471.493C545.815 470.592 545.99 469.508 545.747 468.478L545.747 468.478Z" fill="url(#paint4_linear_31_64)"/>
<path d="M603.995 469.794C603.942 468.77 603.498 467.806 602.754 467.1C602.01 466.394 601.024 466 599.999 466H424.001C422.976 466 421.99 466.393 421.246 467.099C420.502 467.806 420.058 468.77 420.005 469.794L412.005 625.792C411.977 626.334 412.06 626.875 412.248 627.384C412.436 627.893 412.726 628.359 413.1 628.752C413.474 629.145 413.923 629.458 414.422 629.672C414.921 629.886 415.458 629.997 416 629.996H607.997C608.539 629.997 609.077 629.887 609.576 629.673C610.075 629.46 610.525 629.147 610.899 628.753C611.273 628.36 611.563 627.894 611.752 627.385C611.94 626.876 612.023 626.334 611.995 625.792L603.995 469.794ZM420.209 621.996L427.8 473.999H596.196L603.786 621.996H420.209Z" fill="url(#paint5_linear_31_64)"/>
<path d="M541.998 481.998C539.625 481.998 537.304 482.702 535.331 484.02C533.358 485.339 531.82 487.213 530.911 489.406C530.003 491.598 529.766 494.011 530.229 496.339C530.692 498.666 531.835 500.805 533.513 502.483C535.191 504.161 537.329 505.304 539.657 505.767C541.985 506.23 544.397 505.992 546.59 505.084C548.783 504.176 550.657 502.638 551.975 500.664C553.294 498.691 553.998 496.371 553.998 493.998C553.994 490.816 552.729 487.766 550.479 485.516C548.23 483.267 545.179 482.001 541.998 481.998V481.998ZM541.998 497.998C541.207 497.998 540.434 497.764 539.776 497.324C539.118 496.885 538.606 496.26 538.303 495.529C538 494.799 537.921 493.994 538.075 493.219C538.23 492.443 538.611 491.73 539.17 491.171C539.729 490.612 540.442 490.231 541.218 490.076C541.993 489.922 542.798 490.001 543.528 490.304C544.259 490.607 544.884 491.119 545.323 491.777C545.763 492.435 545.997 493.208 545.997 493.999C545.996 495.059 545.574 496.075 544.824 496.825C544.074 497.574 543.058 497.996 541.998 497.997V497.998Z" fill="url(#paint6_linear_31_64)"/>
<path d="M481.999 481.998C479.625 481.998 477.305 482.702 475.332 484.02C473.359 485.339 471.821 487.213 470.912 489.406C470.004 491.598 469.767 494.011 470.23 496.339C470.693 498.666 471.835 500.805 473.514 502.483C475.192 504.161 477.33 505.304 479.658 505.767C481.986 506.23 484.398 505.992 486.591 505.084C488.784 504.176 490.658 502.638 491.976 500.664C493.295 498.691 493.999 496.371 493.999 493.998C493.995 490.816 492.73 487.766 490.48 485.516C488.231 483.267 485.18 482.001 481.999 481.998ZM481.999 497.998C481.208 497.998 480.435 497.764 479.777 497.324C479.119 496.885 478.607 496.26 478.304 495.529C478.001 494.799 477.922 493.994 478.076 493.219C478.231 492.443 478.611 491.73 479.171 491.171C479.73 490.612 480.443 490.231 481.219 490.076C481.994 489.922 482.799 490.001 483.529 490.304C484.26 490.607 484.885 491.119 485.324 491.777C485.764 492.435 485.998 493.208 485.998 493.999C485.997 495.059 485.575 496.075 484.825 496.825C484.075 497.574 483.059 497.996 481.999 497.997V497.998Z" fill="url(#paint7_linear_31_64)"/>
<path d="M541.998 493.998H541.689C540.629 493.998 539.612 494.42 538.862 495.17C538.112 495.92 537.69 496.937 537.69 497.997C537.688 498.527 537.793 499.051 537.998 499.539V519.996C537.998 526.892 535.259 533.505 530.383 538.381C525.507 543.257 518.894 545.996 511.998 545.996C505.103 545.996 498.489 543.257 493.614 538.381C488.738 533.505 485.998 526.892 485.998 519.996V497.998C486.006 497.468 485.908 496.942 485.71 496.451C485.513 495.959 485.219 495.511 484.847 495.134C484.475 494.756 484.032 494.457 483.543 494.252C483.054 494.048 482.529 493.942 481.999 493.942C481.469 493.942 480.945 494.048 480.456 494.252C479.967 494.457 479.524 494.756 479.151 495.134C478.779 495.511 478.486 495.959 478.288 496.451C478.091 496.942 477.993 497.468 478 497.998V519.998C478 529.015 481.582 537.663 487.958 544.039C494.335 550.415 502.982 553.997 511.999 553.997C521.017 553.997 529.664 550.415 536.04 544.039C542.417 537.663 545.999 529.015 545.999 519.998V497.998C545.998 496.937 545.577 495.92 544.826 495.17C544.076 494.42 543.059 493.998 541.998 493.998V493.998Z" fill="url(#paint8_linear_31_64)"/>
<defs>
<linearGradient id="paint0_linear_31_64" x1="514.716" y1="394" x2="514.716" y2="427.726" gradientUnits="userSpaceOnUse">
<stop stop-color="#F86237"/>
<stop offset="1" stop-color="#F86237"/>
</linearGradient>
<linearGradient id="paint1_linear_31_64" x1="511.996" y1="445.996" x2="511.996" y2="473.999" gradientUnits="userSpaceOnUse">
<stop stop-color="#F86237"/>
<stop offset="1" stop-color="#F86237"/>
</linearGradient>
<linearGradient id="paint2_linear_31_64" x1="550.77" y1="416.412" x2="550.77" y2="472.459" gradientUnits="userSpaceOnUse">
<stop stop-color="#F86237"/>
<stop offset="1" stop-color="#F86237"/>
</linearGradient>
<linearGradient id="paint3_linear_31_64" x1="474.868" y1="406.155" x2="474.868" y2="473.478" gradientUnits="userSpaceOnUse">
<stop stop-color="#F86237"/>
<stop offset="1" stop-color="#F86237"/>
</linearGradient>
<linearGradient id="paint4_linear_31_64" x1="505.668" y1="432.399" x2="505.668" y2="473.397" gradientUnits="userSpaceOnUse">
<stop stop-color="#F86237"/>
<stop offset="1" stop-color="#F86237"/>
</linearGradient>
<linearGradient id="paint5_linear_31_64" x1="512" y1="466" x2="512" y2="629.996" gradientUnits="userSpaceOnUse">
<stop stop-color="#F86237"/>
<stop offset="1" stop-color="#F86237"/>
</linearGradient>
<linearGradient id="paint6_linear_31_64" x1="541.998" y1="481.998" x2="541.998" y2="505.998" gradientUnits="userSpaceOnUse">
<stop stop-color="#F86237"/>
<stop offset="1" stop-color="#F86237"/>
</linearGradient>
<linearGradient id="paint7_linear_31_64" x1="481.999" y1="481.998" x2="481.999" y2="505.998" gradientUnits="userSpaceOnUse">
<stop stop-color="#F86237"/>
<stop offset="1" stop-color="#F86237"/>
</linearGradient>
<linearGradient id="paint8_linear_31_64" x1="511.999" y1="493.942" x2="511.999" y2="553.997" gradientUnits="userSpaceOnUse">
<stop stop-color="#F86237"/>
<stop offset="1" stop-color="#F86237"/>
</linearGradient>
</defs>
</svg>
