<svg width="1024" height="1024" viewBox="0 0 1024 1024" fill="none" xmlns="http://www.w3.org/2000/svg">
<path d="M595.549 290.558C589.649 249.2 553.649 218 511.808 218C498.489 218.025 485.362 221.183 473.489 227.218C461.616 233.254 451.329 241.998 443.46 252.744C442.675 253.798 442.107 254.997 441.788 256.272C441.469 257.547 441.406 258.872 441.602 260.172C441.798 261.471 442.25 262.719 442.931 263.843C443.612 264.967 444.509 265.945 445.57 266.72C446.631 267.495 447.835 268.053 449.113 268.36C450.391 268.667 451.717 268.718 453.015 268.51C454.312 268.302 455.556 267.839 456.673 267.148C457.791 266.456 458.761 265.55 459.526 264.482C467.105 254.088 477.61 246.189 489.699 241.794C501.789 237.398 514.914 236.707 527.398 239.807C539.883 242.907 551.16 249.658 559.789 259.198C568.418 268.738 574.007 280.634 575.843 293.366C576.183 295.736 577.364 297.904 579.172 299.474C580.98 301.044 583.292 301.911 585.686 301.915C586.16 301.913 586.634 301.88 587.103 301.815C589.715 301.441 592.072 300.045 593.656 297.935C595.24 295.824 595.921 293.171 595.549 290.558V290.558Z" fill="url(#paint0_linear_31_33)"/>
<path d="M739.293 401.97L709.436 352.204C708.552 350.73 707.302 349.51 705.806 348.663C704.31 347.816 702.621 347.372 700.902 347.373H672.29C670.971 347.354 669.662 347.598 668.439 348.09C667.215 348.581 666.101 349.311 665.162 350.237C664.223 351.163 663.478 352.266 662.969 353.482C662.46 354.699 662.198 356.004 662.198 357.323C662.198 358.642 662.46 359.947 662.969 361.164C663.478 362.38 664.223 363.483 665.162 364.409C666.101 365.335 667.215 366.065 668.439 366.557C669.662 367.048 670.971 367.292 672.29 367.273H695.269L713.183 397.13H310.431L328.345 367.279H338.885C340.203 367.298 341.513 367.054 342.736 366.563C343.96 366.071 345.073 365.341 346.012 364.415C346.951 363.489 347.697 362.386 348.206 361.17C348.715 359.953 348.977 358.648 348.977 357.329C348.977 356.01 348.715 354.705 348.206 353.488C347.697 352.272 346.951 351.169 346.012 350.243C345.073 349.317 343.96 348.587 342.736 348.096C341.513 347.604 340.203 347.36 338.885 347.379H322.712C320.994 347.377 319.304 347.821 317.809 348.666C316.313 349.512 315.062 350.731 314.178 352.204L284.319 401.97C283.413 403.481 282.924 405.204 282.902 406.966C282.879 408.727 283.325 410.462 284.193 411.995C285.06 413.528 286.319 414.803 287.84 415.691C289.362 416.578 291.092 417.046 292.853 417.047H730.753C732.514 417.046 734.244 416.578 735.765 415.691C737.287 414.803 738.546 413.528 739.413 411.995C740.281 410.462 740.726 408.727 740.704 406.966C740.682 405.204 740.193 403.481 739.287 401.97H739.293Z" fill="url(#paint1_linear_31_33)"/>
<path d="M689.685 310.204C688.996 309.092 688.095 308.128 687.033 307.365C685.971 306.602 684.768 306.057 683.495 305.76L547.827 274.028C546.554 273.729 545.235 273.684 543.946 273.896C542.656 274.107 541.42 274.571 540.309 275.26C539.199 275.95 538.235 276.851 537.473 277.914C536.712 278.976 536.167 280.178 535.87 281.451L525.635 325.188C525.035 327.758 525.48 330.461 526.872 332.703C528.265 334.945 530.491 336.542 533.062 337.143C535.632 337.743 538.335 337.298 540.577 335.905C542.819 334.512 544.416 332.286 545.016 329.716L552.982 295.675L669.27 322.875L650.997 401.002C650.699 402.274 650.654 403.593 650.866 404.882C651.078 406.172 651.541 407.407 652.231 408.517C652.92 409.627 653.822 410.59 654.884 411.352C655.946 412.113 657.147 412.657 658.42 412.954C659.168 413.128 659.933 413.216 660.7 413.216C662.943 413.215 665.119 412.455 666.876 411.06C668.632 409.665 669.865 407.717 670.374 405.533L690.915 317.717C691.215 316.445 691.261 315.127 691.05 313.838C690.839 312.548 690.375 311.313 689.685 310.204V310.204Z" fill="url(#paint2_linear_31_33)"/>
<path d="M517.071 333.73L508.003 257.03C507.692 254.409 506.353 252.018 504.28 250.383C502.208 248.748 499.571 248.003 496.949 248.312L330.491 267.989C327.87 268.3 325.48 269.639 323.846 271.712C322.213 273.784 321.469 276.421 321.779 279.042L336.897 406.964C337.182 409.383 338.345 411.613 340.164 413.233C341.984 414.853 344.334 415.749 346.77 415.752C347.165 415.75 347.561 415.727 347.954 415.682C350.574 415.37 352.963 414.031 354.597 411.958C356.23 409.886 356.974 407.25 356.666 404.629L342.715 286.583L489.406 269.246L497.306 336.06C497.625 338.673 498.966 341.054 501.036 342.681C503.106 344.307 505.736 345.047 508.351 344.739C510.965 344.431 513.351 343.1 514.986 341.036C516.621 338.973 517.372 336.346 517.075 333.73H517.071Z" fill="url(#paint3_linear_31_33)"/>
<path d="M595.781 403.312L576.027 321.165C575.722 319.894 575.17 318.696 574.401 317.639C573.633 316.583 572.664 315.687 571.549 315.005C570.435 314.323 569.197 313.867 567.906 313.664C566.615 313.461 565.297 313.514 564.027 313.82L403.696 352.378C401.13 352.995 398.915 354.606 397.536 356.856C396.158 359.106 395.729 361.812 396.345 364.378L406.218 405.437C406.518 406.713 407.068 407.917 407.835 408.98C408.602 410.042 409.571 410.943 410.687 411.63C411.804 412.318 413.044 412.777 414.339 412.984C415.633 413.19 416.956 413.139 418.23 412.832C419.504 412.526 420.706 411.971 421.765 411.199C422.825 410.428 423.721 409.454 424.403 408.335C425.085 407.216 425.54 405.973 425.74 404.677C425.94 403.382 425.883 402.06 425.571 400.787L418.021 369.403L558.996 335.503L576.423 407.97C577.051 410.526 578.665 412.73 580.914 414.099C583.162 415.468 585.861 415.891 588.42 415.275C590.98 414.659 593.191 413.054 594.57 410.812C595.949 408.57 596.384 405.873 595.78 403.311L595.781 403.312Z" fill="url(#paint4_linear_31_33)"/>
<path d="M740.707 406.586C740.575 404.038 739.47 401.638 737.62 399.881C735.77 398.124 733.316 397.145 730.764 397.145H292.861C290.31 397.144 287.855 398.124 286.005 399.881C284.155 401.637 283.05 404.038 282.918 406.586L263.013 794.727C262.944 796.075 263.149 797.424 263.618 798.69C264.086 799.956 264.807 801.114 265.737 802.092C266.667 803.071 267.786 803.85 269.027 804.383C270.267 804.915 271.603 805.189 272.953 805.189H750.664C752.015 805.19 753.352 804.917 754.593 804.385C755.835 803.853 756.955 803.074 757.886 802.095C758.817 801.117 759.538 799.958 760.007 798.692C760.476 797.425 760.682 796.076 760.612 794.727L740.707 406.586ZM283.426 785.283L302.311 417.048H721.303L740.188 785.283H283.426Z" fill="url(#paint5_linear_31_33)"/>
<path d="M586.451 436.95C580.546 436.95 574.773 438.701 569.863 441.982C564.953 445.263 561.126 449.926 558.866 455.381C556.607 460.837 556.015 466.84 557.167 472.632C558.319 478.423 561.163 483.744 565.339 487.919C569.514 492.095 574.834 494.938 580.626 496.09C586.418 497.242 592.421 496.651 597.877 494.391C603.332 492.131 607.995 488.305 611.276 483.395C614.557 478.485 616.308 472.712 616.308 466.807C616.3 458.891 613.151 451.301 607.554 445.704C601.956 440.106 594.367 436.958 586.451 436.95V436.95ZM586.451 476.761C584.483 476.761 582.559 476.177 580.922 475.084C579.286 473.991 578.01 472.436 577.257 470.618C576.504 468.8 576.307 466.799 576.691 464.869C577.075 462.938 578.023 461.165 579.414 459.774C580.806 458.382 582.579 457.434 584.509 457.05C586.44 456.666 588.441 456.863 590.259 457.616C592.077 458.37 593.631 459.645 594.725 461.282C595.818 462.918 596.402 464.842 596.402 466.81C596.398 469.448 595.349 471.976 593.483 473.841C591.618 475.706 589.089 476.755 586.451 476.757V476.761Z" fill="url(#paint6_linear_31_33)"/>
<path d="M437.166 436.95C431.261 436.95 425.488 438.701 420.578 441.982C415.668 445.263 411.842 449.926 409.582 455.381C407.322 460.837 406.731 466.84 407.883 472.632C409.035 478.423 411.878 483.744 416.054 487.919C420.23 492.095 425.55 494.938 431.341 496.09C437.133 497.242 443.136 496.651 448.592 494.391C454.048 492.131 458.711 488.305 461.991 483.395C465.272 478.485 467.023 472.712 467.023 466.807C467.015 458.891 463.867 451.301 458.269 445.704C452.672 440.106 445.082 436.958 437.166 436.95ZM437.166 476.761C435.198 476.761 433.274 476.177 431.638 475.084C430.001 473.991 428.726 472.436 427.973 470.618C427.219 468.8 427.022 466.799 427.406 464.869C427.79 462.938 428.738 461.165 430.13 459.774C431.521 458.382 433.294 457.434 435.225 457.05C437.155 456.666 439.156 456.863 440.974 457.616C442.792 458.37 444.347 459.645 445.44 461.282C446.533 462.918 447.117 464.842 447.117 466.81C447.113 469.448 446.063 471.976 444.198 473.841C442.332 475.705 439.804 476.754 437.166 476.757V476.761Z" fill="url(#paint7_linear_31_33)"/>
<path d="M586.45 466.807H585.683C583.044 466.808 580.514 467.857 578.648 469.723C576.782 471.589 575.733 474.119 575.732 476.758C575.728 478.075 575.989 479.38 576.499 480.595V531.495C576.499 548.652 569.683 565.107 557.551 577.238C545.419 589.37 528.965 596.186 511.808 596.186C494.651 596.186 478.196 589.37 466.064 577.238C453.932 565.107 447.117 548.652 447.117 531.495V476.761C447.136 475.442 446.892 474.133 446.4 472.91C445.909 471.686 445.179 470.573 444.253 469.634C443.327 468.695 442.224 467.949 441.007 467.44C439.791 466.931 438.485 466.669 437.167 466.669C435.848 466.669 434.543 466.931 433.326 467.44C432.11 467.949 431.007 468.695 430.081 469.634C429.155 470.573 428.425 471.686 427.933 472.91C427.442 474.133 427.198 475.442 427.217 476.761V531.498C427.217 553.934 436.129 575.451 451.994 591.315C467.858 607.179 489.375 616.092 511.811 616.092C534.247 616.092 555.763 607.179 571.628 591.315C587.492 575.451 596.405 553.934 596.405 531.498V476.761C596.404 474.121 595.355 471.59 593.488 469.723C591.621 467.856 589.09 466.808 586.45 466.807V466.807Z" fill="url(#paint8_linear_31_33)"/>
<defs>
<linearGradient id="paint0_linear_31_33" x1="518.569" y1="218" x2="518.569" y2="301.915" gradientUnits="userSpaceOnUse">
<stop stop-color="#F86237"/>
<stop offset="1" stop-color="#F86237"/>
</linearGradient>
<linearGradient id="paint1_linear_31_33" x1="511.803" y1="347.372" x2="511.803" y2="417.047" gradientUnits="userSpaceOnUse">
<stop stop-color="#F86237"/>
<stop offset="1" stop-color="#F86237"/>
</linearGradient>
<linearGradient id="paint2_linear_31_33" x1="608.277" y1="273.765" x2="608.277" y2="413.216" gradientUnits="userSpaceOnUse">
<stop stop-color="#F86237"/>
<stop offset="1" stop-color="#F86237"/>
</linearGradient>
<linearGradient id="paint3_linear_31_33" x1="419.424" y1="248.244" x2="419.424" y2="415.752" gradientUnits="userSpaceOnUse">
<stop stop-color="#F86237"/>
<stop offset="1" stop-color="#F86237"/>
</linearGradient>
<linearGradient id="paint4_linear_31_33" x1="496.058" y1="313.543" x2="496.058" y2="415.551" gradientUnits="userSpaceOnUse">
<stop stop-color="#F86237"/>
<stop offset="1" stop-color="#F86237"/>
</linearGradient>
<linearGradient id="paint5_linear_31_33" x1="511.813" y1="397.145" x2="511.813" y2="805.189" gradientUnits="userSpaceOnUse">
<stop stop-color="#F86237"/>
<stop offset="1" stop-color="#F86237"/>
</linearGradient>
<linearGradient id="paint6_linear_31_33" x1="586.451" y1="436.95" x2="586.451" y2="496.664" gradientUnits="userSpaceOnUse">
<stop stop-color="#F86237"/>
<stop offset="1" stop-color="#F86237"/>
</linearGradient>
<linearGradient id="paint7_linear_31_33" x1="437.166" y1="436.95" x2="437.166" y2="496.664" gradientUnits="userSpaceOnUse">
<stop stop-color="#F86237"/>
<stop offset="1" stop-color="#F86237"/>
</linearGradient>
<linearGradient id="paint8_linear_31_33" x1="511.81" y1="466.669" x2="511.81" y2="616.092" gradientUnits="userSpaceOnUse">
<stop stop-color="#F86237"/>
<stop offset="1" stop-color="#F86237"/>
</linearGradient>
</defs>
</svg>
