<svg width="1024" height="1024" viewBox="0 0 1024 1024" fill="none" xmlns="http://www.w3.org/2000/svg">
<path d="M408.25 460.125C425.44 460.125 439.375 446.19 439.375 429C439.375 411.81 425.44 397.875 408.25 397.875C391.06 397.875 377.125 411.81 377.125 429C377.125 446.19 391.06 460.125 408.25 460.125Z" stroke="black" stroke-width="20" stroke-miterlimit="10" stroke-linecap="round" stroke-linejoin="round"/>
<path d="M408.25 460.125V626.125" stroke="black" stroke-width="20" stroke-miterlimit="10" stroke-linecap="round" stroke-linejoin="round"/>
<path d="M512 584.625C529.19 584.625 543.125 570.69 543.125 553.5C543.125 536.31 529.19 522.375 512 522.375C494.81 522.375 480.875 536.31 480.875 553.5C480.875 570.69 494.81 584.625 512 584.625Z" stroke="black" stroke-width="20" stroke-miterlimit="10" stroke-linecap="round" stroke-linejoin="round"/>
<path d="M512 397.875V522.375" stroke="black" stroke-width="20" stroke-miterlimit="10" stroke-linecap="round" stroke-linejoin="round"/>
<path d="M512 584.625V626.125" stroke="black" stroke-width="20" stroke-miterlimit="10" stroke-linecap="round" stroke-linejoin="round"/>
<path d="M615.75 522.375C632.94 522.375 646.875 508.44 646.875 491.25C646.875 474.06 632.94 460.125 615.75 460.125C598.56 460.125 584.625 474.06 584.625 491.25C584.625 508.44 598.56 522.375 615.75 522.375Z" stroke="black" stroke-width="20" stroke-miterlimit="10" stroke-linecap="round" stroke-linejoin="round"/>
<path d="M615.75 522.375V626.125" stroke="black" stroke-width="20" stroke-miterlimit="10" stroke-linecap="round" stroke-linejoin="round"/>
<path d="M615.75 397.875V460.125" stroke="black" stroke-width="20" stroke-miterlimit="10" stroke-linecap="round" stroke-linejoin="round"/>
</svg>
