<?xml version="1.0" ?><!DOCTYPE svg  PUBLIC '-//W3C//DTD SVG 1.1//EN'  'http://www.w3.org/Graphics/SVG/1.1/DTD/svg11.dtd'><svg enable-background="new 0 0 512 512" height="512px" id="Layer_1" version="1.1" viewBox="0 0 512 512" width="512px" xml:space="preserve" xmlns="http://www.w3.org/2000/svg" xmlns:xlink="http://www.w3.org/1999/xlink"><g><path d="M480,224c-17.688,0-32,14.328-32,32v192H64V256c0-17.672-14.312-32-32-32c-17.688,0-32,14.328-32,32v224   c0,17.672,14.312,32,32,32h448c17.688,0,32-14.328,32-32V256C512,238.328,497.688,224,480,224z"/><path d="M224,320c0,17.672,14.312,32,32,32c17.688,0,32-14.328,32-32V128h96L256,0L128,128h96V320z"/></g></svg>