<svg width="216" height="216" viewBox="0 0 216 216" fill="none" xmlns="http://www.w3.org/2000/svg">
<path d="M125.775 30.1323C125.309 26.8893 123.886 23.8589 121.689 21.4284C119.492 18.9978 116.62 17.2774 113.44 16.4868C110.26 15.6963 106.917 15.8716 103.838 16.9902C100.758 18.1089 98.082 20.1202 96.151 22.7672C95.9956 22.9723 95.8825 23.2063 95.8185 23.4555C95.7545 23.7048 95.7407 23.9643 95.7781 24.219C95.8154 24.4736 95.9031 24.7182 96.036 24.9386C96.1689 25.159 96.3444 25.3507 96.5522 25.5025C96.76 25.6543 96.996 25.7632 97.2463 25.8229C97.4967 25.8825 97.7564 25.8917 98.0103 25.8499C98.2643 25.8081 98.5073 25.7161 98.7253 25.5794C98.9434 25.4426 99.1319 25.2638 99.2801 25.0534C100.757 23.0289 102.803 21.4906 105.158 20.6348C107.513 19.779 110.07 19.6447 112.502 20.2488C114.933 20.853 117.13 22.1683 118.81 24.0268C120.491 25.8852 121.58 28.2024 121.937 30.6825C122.004 31.1433 122.234 31.5647 122.586 31.8698C122.938 32.1749 123.388 32.3433 123.853 32.3442C123.946 32.3439 124.038 32.3373 124.129 32.3247C124.638 32.252 125.097 31.9803 125.406 31.5692C125.715 31.1581 125.848 30.6413 125.775 30.1323Z" fill="#F86237"/>
<path d="M153.774 51.8338L147.959 42.1412C147.786 41.8539 147.543 41.6162 147.251 41.4513C146.96 41.2863 146.631 41.1997 146.296 41.2H140.723C140.216 41.2099 139.732 41.4185 139.377 41.781C139.022 42.1434 138.823 42.6307 138.823 43.1383C138.823 43.6458 139.022 44.1331 139.377 44.4956C139.732 44.858 140.216 45.0666 140.723 45.0766H145.197L148.687 50.8918H70.2389L73.7282 45.0766H75.781C76.0387 45.0816 76.2949 45.0352 76.5345 44.9401C76.7741 44.845 76.9923 44.703 77.1764 44.5225C77.3605 44.342 77.5067 44.1266 77.6065 43.889C77.7064 43.6513 77.7578 43.3961 77.7578 43.1383C77.7578 42.8805 77.7064 42.6252 77.6065 42.3876C77.5067 42.1499 77.3605 41.9345 77.1764 41.754C76.9923 41.5735 76.7741 41.4315 76.5345 41.3364C76.2949 41.2413 76.0387 41.1949 75.781 41.2H72.6286C72.2941 41.2 71.9652 41.2867 71.6741 41.4516C71.383 41.6166 71.1396 41.8541 70.9677 42.1412L65.1531 51.8338C64.9767 52.128 64.8814 52.4638 64.8771 52.8069C64.8728 53.15 64.9596 53.4881 65.1286 53.7867C65.2976 54.0852 65.5428 54.3336 65.8392 54.5065C66.1356 54.6794 66.4725 54.7706 66.8156 54.7707H152.111C152.454 54.7706 152.791 54.6794 153.088 54.5065C153.384 54.3336 153.629 54.0852 153.798 53.7867C153.967 53.4881 154.054 53.15 154.05 52.8069C154.046 52.4638 153.95 52.128 153.774 51.8338Z" fill="#F86237"/>
<path d="M144.111 33.9587C143.977 33.7422 143.802 33.5544 143.595 33.4059C143.388 33.2574 143.154 33.1512 142.906 33.0933L116.479 26.9125C116.231 26.8547 115.974 26.8462 115.723 26.8876C115.472 26.929 115.232 27.0195 115.016 27.1538C114.8 27.2881 114.612 27.4636 114.464 27.6704C114.316 27.8771 114.21 28.1111 114.152 28.3588L112.159 36.8776C112.051 37.375 112.143 37.8952 112.415 38.3256C112.687 38.756 113.117 39.0622 113.613 39.178C114.108 39.2938 114.63 39.21 115.064 38.9445C115.499 38.6791 115.811 38.2535 115.935 37.7595L117.486 31.1291L140.137 36.4272L136.578 51.6447C136.52 51.8924 136.511 52.1492 136.553 52.4002C136.594 52.6513 136.685 52.8917 136.819 53.1078C136.953 53.3238 137.129 53.5113 137.336 53.6595C137.542 53.8077 137.776 53.9137 138.024 53.9714C138.17 54.0053 138.319 54.0224 138.469 54.0224C138.905 54.0223 139.33 53.8744 139.672 53.6026C140.014 53.3309 140.254 52.9514 140.353 52.5258L144.354 35.4208C144.412 35.1731 144.42 34.9164 144.379 34.6655C144.337 34.4145 144.246 34.1743 144.111 33.9587V33.9587Z" fill="#F86237"/>
<path d="M110.489 38.5414L108.723 23.6054C108.662 23.0948 108.401 22.6291 107.997 22.3107C107.594 21.9924 107.08 21.8474 106.569 21.9077L74.1461 25.7385C73.6356 25.799 73.1699 26.0599 72.8517 26.4637C72.5334 26.8675 72.3886 27.3812 72.4491 27.8918L75.3936 52.8102C75.4501 53.281 75.6772 53.7149 76.0319 54.0297C76.3867 54.3444 76.8445 54.5183 77.3187 54.5184C77.3957 54.5181 77.4726 54.5136 77.5491 54.5049C78.0596 54.4442 78.5252 54.1833 78.8434 53.7795C79.1616 53.3757 79.3064 52.8621 79.2461 52.3516L76.5269 29.3584L105.1 25.9809L106.638 38.9947C106.707 39.4975 106.971 39.9531 107.372 40.2639C107.773 40.5746 108.28 40.7156 108.784 40.6567C109.288 40.5977 109.749 40.3435 110.068 39.9486C110.386 39.5536 110.538 39.0495 110.489 38.5444V38.5414Z" fill="#F86237"/>
<path d="M125.819 52.095L121.972 36.094C121.913 35.8465 121.805 35.613 121.655 35.4071C121.506 35.2012 121.317 35.0268 121.1 34.8939C120.883 34.7611 120.641 34.6723 120.39 34.6328C120.138 34.5932 119.882 34.6036 119.634 34.6635L88.4044 42.1742C87.9045 42.2944 87.4727 42.6082 87.2042 43.0466C86.9356 43.4851 86.8522 44.0123 86.9724 44.5122L88.8953 52.5101C88.9512 52.7613 89.0566 52.9989 89.2053 53.209C89.3539 53.4191 89.543 53.5975 89.7613 53.7337C89.9797 53.87 90.223 53.9614 90.477 54.0026C90.7311 54.0439 90.9908 54.0341 91.2411 53.9739C91.4913 53.9137 91.7271 53.8043 91.9346 53.652C92.1421 53.4998 92.3172 53.3077 92.4497 53.0871C92.5822 52.8664 92.6694 52.6216 92.7063 52.3668C92.7432 52.1121 92.729 51.8526 92.6646 51.6034L91.1942 45.4902L118.654 38.8853L122.047 53.0025C122.174 53.4958 122.489 53.9196 122.926 54.1823C123.362 54.4449 123.884 54.5253 124.38 54.4062C124.875 54.287 125.303 53.9778 125.572 53.5454C125.841 53.1129 125.93 52.592 125.818 52.095H125.819Z" fill="#F86237"/>
<path d="M154.049 52.733C154.024 52.2368 153.808 51.7694 153.448 51.4272C153.088 51.0851 152.61 50.8943 152.113 50.8942H66.8164C66.3194 50.8941 65.8414 51.0848 65.4811 51.427C65.1207 51.7692 64.9055 52.2367 64.8799 52.733L61.0026 128.336C60.989 128.599 61.0291 128.861 61.1203 129.108C61.2115 129.355 61.352 129.58 61.5331 129.771C61.7143 129.962 61.9324 130.113 62.174 130.217C62.4157 130.321 62.676 130.374 62.939 130.374H155.989C156.252 130.374 156.512 130.321 156.754 130.217C156.996 130.114 157.214 129.962 157.396 129.771C157.577 129.581 157.717 129.355 157.809 129.108C157.9 128.862 157.94 128.599 157.927 128.336L154.049 52.733ZM64.9782 126.497L68.656 54.7708H150.272L153.949 126.497H64.9782Z" fill="#F86237"/>
<path d="M124.002 58.6473C122.852 58.6473 121.728 58.9884 120.772 59.6274C119.815 60.2664 119.07 61.1746 118.63 62.2372C118.19 63.2998 118.074 64.4691 118.299 65.5971C118.523 66.7252 119.077 67.7614 119.89 68.5746C120.704 69.3879 121.74 69.9418 122.868 70.1662C123.996 70.3905 125.165 70.2754 126.228 69.8352C127.29 69.3951 128.199 68.6497 128.838 67.6934C129.477 66.7371 129.818 65.6128 129.818 64.4626C129.816 62.9209 129.203 61.4428 128.112 60.3526C127.022 59.2624 125.544 58.6491 124.002 58.6473V58.6473ZM124.002 66.402C123.619 66.402 123.244 66.2883 122.925 66.0753C122.607 65.8623 122.358 65.5595 122.211 65.2053C122.065 64.851 122.026 64.4612 122.101 64.0851C122.176 63.7091 122.36 63.3636 122.632 63.0925C122.903 62.8214 123.248 62.6367 123.624 62.5619C124 62.4871 124.39 62.5255 124.744 62.6723C125.099 62.819 125.401 63.0675 125.614 63.3863C125.827 63.7051 125.941 64.0799 125.941 64.4634C125.941 64.9774 125.736 65.4703 125.373 65.8338C125.009 66.1973 124.516 66.4016 124.002 66.402V66.402Z" fill="#F86237"/>
<path d="M94.9245 58.6473C93.7744 58.6473 92.6501 58.9884 91.6937 59.6274C90.7374 60.2664 89.9921 61.1746 89.5519 62.2372C89.1118 63.2998 88.9966 64.4691 89.221 65.5971C89.4454 66.7252 89.9992 67.7614 90.8125 68.5746C91.6258 69.3879 92.662 69.9418 93.79 70.1662C94.9181 70.3905 96.0873 70.2754 97.1499 69.8352C98.2125 69.3951 99.1208 68.6497 99.7598 67.6934C100.399 66.7371 100.74 65.6128 100.74 64.4626C100.738 62.9209 100.125 61.4428 99.0346 60.3526C97.9444 59.2624 96.4663 58.6491 94.9245 58.6473ZM94.9245 66.402C94.5411 66.402 94.1663 66.2883 93.8475 66.0753C93.5286 65.8623 93.2802 65.5595 93.1334 65.2053C92.9867 64.851 92.9483 64.4612 93.0231 64.0851C93.0979 63.7091 93.2826 63.3636 93.5537 63.0925C93.8248 62.8214 94.1703 62.6367 94.5463 62.5619C94.9224 62.4871 95.3122 62.5255 95.6664 62.6723C96.0207 62.819 96.3235 63.0675 96.5365 63.3863C96.7495 63.7051 96.8632 64.0799 96.8632 64.4634C96.8628 64.9774 96.6584 65.4703 96.2949 65.8338C95.9315 66.1973 95.4386 66.4016 94.9245 66.402V66.402Z" fill="#F86237"/>
<path d="M124 64.4625H123.85C123.336 64.4625 122.843 64.6668 122.479 65.0304C122.116 65.3939 121.911 65.887 121.911 66.4012C121.91 66.6589 121.962 66.9142 122.062 67.1518V77.0658C122.074 78.7287 121.758 80.3777 121.13 81.9178C120.503 83.4578 119.577 84.8584 118.405 86.0389C117.234 87.2193 115.841 88.1562 114.306 88.7955C112.77 89.4349 111.124 89.7641 109.461 89.7641C107.798 89.7641 106.151 89.4349 104.616 88.7955C103.081 88.1562 101.688 87.2193 100.516 86.0389C99.3449 84.8584 98.4188 83.4578 97.7913 81.9178C97.1639 80.3777 96.8474 78.7287 96.8602 77.0658V66.408C96.8503 65.9005 96.6417 65.4172 96.2792 65.0618C95.9168 64.7065 95.4295 64.5074 94.9219 64.5074C94.4144 64.5074 93.9271 64.7065 93.5646 65.0618C93.2022 65.4172 92.9936 65.9005 92.9836 66.408V77.0695C92.9836 81.4397 94.7197 85.6308 97.8098 88.721C100.9 91.8111 105.091 93.5472 109.461 93.5472C113.831 93.5472 118.023 91.8111 121.113 88.721C124.203 85.6308 125.939 81.4397 125.939 77.0695V66.4012C125.939 65.8871 125.734 65.3941 125.371 65.0306C125.007 64.667 124.514 64.4627 124 64.4625V64.4625Z" fill="#F86237"/>
<path d="M75.889 159.581C75.889 160.343 75.6986 160.993 75.3177 161.532C74.9427 162.065 74.4154 162.473 73.7357 162.754C73.056 163.035 72.2562 163.176 71.3363 163.176C70.85 163.176 70.39 163.152 69.9564 163.105C69.5228 163.059 69.1244 162.991 68.7611 162.903C68.3978 162.815 68.0785 162.707 67.8031 162.578V161.146C68.2426 161.327 68.7787 161.497 69.4115 161.655C70.0443 161.808 70.7064 161.884 71.3978 161.884C72.0424 161.884 72.5873 161.799 73.0326 161.629C73.4779 161.453 73.8148 161.204 74.0433 160.882C74.2777 160.554 74.3949 160.161 74.3949 159.704C74.3949 159.265 74.2982 158.898 74.1049 158.605C73.9115 158.307 73.5892 158.037 73.1381 157.797C72.6927 157.551 72.0834 157.29 71.3099 157.015C70.765 156.821 70.2845 156.61 69.8685 156.382C69.4525 156.147 69.1039 155.884 68.8226 155.591C68.5414 155.298 68.3275 154.958 68.181 154.571C68.0404 154.185 67.9701 153.742 67.9701 153.244C67.9701 152.559 68.1429 151.973 68.4886 151.486C68.8402 150.994 69.3236 150.619 69.9388 150.361C70.5599 150.098 71.2719 149.966 72.0746 149.966C72.7601 149.966 73.3929 150.03 73.973 150.159C74.559 150.288 75.0951 150.461 75.5814 150.678L75.1156 151.961C74.6527 151.768 74.1605 151.606 73.639 151.478C73.1234 151.349 72.5902 151.284 72.0394 151.284C71.4886 151.284 71.0228 151.366 70.642 151.53C70.267 151.688 69.9799 151.914 69.7806 152.207C69.5814 152.5 69.4818 152.849 69.4818 153.253C69.4818 153.704 69.5756 154.079 69.7631 154.378C69.9564 154.677 70.2611 154.943 70.6771 155.178C71.099 155.406 71.6556 155.646 72.347 155.898C73.1029 156.174 73.7445 156.467 74.2719 156.777C74.7992 157.082 75.2006 157.457 75.476 157.902C75.7513 158.342 75.889 158.901 75.889 159.581ZM88.2552 163H86.7611V156.944H80.0111V163H78.517V150.15H80.0111V155.626H86.7611V150.15H88.2552V163ZM102.933 156.558C102.933 157.548 102.807 158.45 102.555 159.265C102.303 160.073 101.928 160.771 101.43 161.356C100.938 161.937 100.326 162.385 99.5931 162.701C98.8607 163.018 98.0111 163.176 97.0443 163.176C96.0482 163.176 95.1781 163.018 94.434 162.701C93.6957 162.385 93.0804 161.934 92.5883 161.348C92.1019 160.762 91.7357 160.062 91.4896 159.247C91.2494 158.433 91.1293 157.53 91.1293 156.54C91.1293 155.228 91.3461 154.076 91.7797 153.086C92.2133 152.096 92.8695 151.325 93.7484 150.774C94.6332 150.224 95.7406 149.948 97.0707 149.948C98.3422 149.948 99.4115 150.221 100.279 150.766C101.152 151.311 101.811 152.078 102.256 153.068C102.707 154.053 102.933 155.216 102.933 156.558ZM92.7025 156.558C92.7025 157.647 92.8578 158.591 93.1683 159.388C93.4789 160.185 93.9535 160.8 94.5922 161.233C95.2367 161.667 96.0541 161.884 97.0443 161.884C98.0404 161.884 98.8549 161.667 99.4877 161.233C100.126 160.8 100.598 160.185 100.903 159.388C101.207 158.591 101.36 157.647 101.36 156.558C101.36 154.899 101.011 153.604 100.314 152.673C99.6224 151.735 98.5414 151.267 97.0707 151.267C96.0746 151.267 95.2543 151.48 94.6097 151.908C93.9652 152.336 93.4847 152.945 93.1683 153.736C92.8578 154.521 92.7025 155.462 92.7025 156.558ZM109.156 150.15C110.814 150.15 112.024 150.476 112.786 151.126C113.553 151.771 113.937 152.696 113.937 153.903C113.937 154.448 113.846 154.967 113.664 155.459C113.489 155.945 113.202 156.376 112.803 156.751C112.405 157.12 111.88 157.413 111.23 157.63C110.585 157.841 109.794 157.946 108.857 157.946H107.292V163H105.798V150.15H109.156ZM109.015 151.425H107.292V156.663H108.69C109.51 156.663 110.193 156.575 110.738 156.399C111.288 156.224 111.702 155.939 111.977 155.547C112.252 155.148 112.39 154.621 112.39 153.965C112.39 153.109 112.118 152.474 111.573 152.058C111.028 151.636 110.175 151.425 109.015 151.425ZM119.984 150.15C121.642 150.15 122.852 150.476 123.614 151.126C124.381 151.771 124.765 152.696 124.765 153.903C124.765 154.448 124.674 154.967 124.493 155.459C124.317 155.945 124.03 156.376 123.631 156.751C123.233 157.12 122.708 157.413 122.058 157.63C121.413 157.841 120.622 157.946 119.685 157.946H118.12V163H116.626V150.15H119.984ZM119.843 151.425H118.12V156.663H119.518C120.338 156.663 121.021 156.575 121.566 156.399C122.117 156.224 122.53 155.939 122.805 155.547C123.08 155.148 123.218 154.621 123.218 153.965C123.218 153.109 122.946 152.474 122.401 152.058C121.856 151.636 121.003 151.425 119.843 151.425ZM127.454 163V150.15H128.949V163H127.454ZM142.528 163H140.805L133.8 152.207H133.73C133.747 152.494 133.768 152.822 133.791 153.191C133.815 153.555 133.832 153.944 133.844 154.36C133.862 154.771 133.87 155.189 133.87 155.617V163H132.482V150.15H134.196L141.174 160.908H141.236C141.224 160.703 141.209 160.413 141.192 160.038C141.174 159.657 141.157 159.25 141.139 158.816C141.127 158.377 141.121 157.97 141.121 157.595V150.15H142.528V163ZM151.528 156.268H156.019V162.499C155.345 162.728 154.651 162.897 153.936 163.009C153.227 163.12 152.433 163.176 151.554 163.176C150.218 163.176 149.09 162.909 148.17 162.376C147.256 161.843 146.562 161.084 146.087 160.1C145.613 159.109 145.375 157.935 145.375 156.575C145.375 155.245 145.636 154.085 146.158 153.095C146.685 152.104 147.444 151.337 148.434 150.792C149.43 150.241 150.625 149.966 152.02 149.966C152.735 149.966 153.411 150.033 154.05 150.168C154.695 150.297 155.292 150.481 155.843 150.722L155.272 152.022C154.797 151.817 154.273 151.642 153.699 151.495C153.13 151.349 152.541 151.275 151.932 151.275C150.883 151.275 149.984 151.492 149.234 151.926C148.49 152.359 147.918 152.972 147.52 153.763C147.127 154.554 146.931 155.491 146.931 156.575C146.931 157.647 147.104 158.582 147.45 159.379C147.795 160.17 148.334 160.785 149.067 161.225C149.799 161.664 150.743 161.884 151.897 161.884C152.477 161.884 152.975 161.852 153.391 161.787C153.807 161.717 154.185 161.635 154.525 161.541V157.604H151.528V156.268Z" fill="#ADADAD"/>
<path d="M77.2943 179.016C76.349 179.016 75.4974 179.18 74.7396 179.508C73.9896 179.829 73.349 180.297 72.8177 180.915C72.2943 181.524 71.892 182.262 71.6107 183.13C71.3295 183.997 71.1888 184.973 71.1888 186.059C71.1888 187.497 71.4115 188.747 71.8568 189.809C72.3099 190.864 72.9818 191.68 73.8724 192.258C74.7709 192.837 75.892 193.126 77.2357 193.126C78.0013 193.126 78.7201 193.063 79.392 192.938C80.0717 192.805 80.7318 192.641 81.3724 192.446V194.18C80.7474 194.415 80.0912 194.587 79.4037 194.696C78.7162 194.813 77.8998 194.872 76.9545 194.872C75.2123 194.872 73.7552 194.512 72.5834 193.794C71.4193 193.067 70.5443 192.044 69.9584 190.723C69.3802 189.403 69.0912 187.844 69.0912 186.047C69.0912 184.751 69.2709 183.567 69.6302 182.497C69.9974 181.419 70.5287 180.489 71.224 179.708C71.9271 178.926 72.7865 178.325 73.8021 177.903C74.8256 177.473 75.9974 177.258 77.3177 177.258C78.1849 177.258 79.0209 177.344 79.8256 177.516C80.6302 177.688 81.3568 177.934 82.0052 178.255L81.2084 179.942C80.6615 179.692 80.0599 179.477 79.4037 179.297C78.7552 179.11 78.0521 179.016 77.2943 179.016ZM94.6263 194.637H85.0873V177.505H94.6263V179.262H87.0795V184.805H94.1927V186.54H87.0795V192.88H94.6263V194.637ZM111.818 194.637H109.521L100.181 180.247H100.087C100.111 180.63 100.138 181.067 100.169 181.559C100.201 182.044 100.224 182.563 100.24 183.118C100.263 183.665 100.275 184.223 100.275 184.794V194.637H98.4232V177.505H100.708L110.013 191.848H110.095C110.079 191.575 110.06 191.188 110.036 190.688C110.013 190.18 109.99 189.637 109.966 189.059C109.951 188.473 109.943 187.93 109.943 187.43V177.505H111.818V194.637ZM121.755 194.637H119.751V179.262H114.361V177.505H127.122V179.262H121.755V194.637ZM139.251 194.637H129.712V177.505H139.251V179.262H131.704V184.805H138.818V186.54H131.704V192.88H139.251V194.637ZM147.677 177.505C149.083 177.505 150.244 177.68 151.158 178.032C152.079 178.376 152.767 178.903 153.22 179.614C153.673 180.325 153.9 181.231 153.9 182.333C153.9 183.239 153.736 183.997 153.408 184.606C153.079 185.208 152.65 185.696 152.119 186.071C151.587 186.446 151.021 186.735 150.419 186.938L155.119 194.637H152.798L148.603 187.489H145.04V194.637H143.048V177.505H147.677ZM147.56 179.227H145.04V185.801H147.759C149.158 185.801 150.185 185.516 150.841 184.946C151.505 184.376 151.837 183.536 151.837 182.426C151.837 181.262 151.486 180.438 150.783 179.954C150.087 179.469 149.013 179.227 147.56 179.227Z" fill="#FD7A54"/>
</svg>
