<svg width="178" height="178" viewBox="0 0 178 178" fill="none" xmlns="http://www.w3.org/2000/svg">
<rect width="178" height="178" fill="#00AB37"/>
<path d="M48.9773 153.273V162H47.9545L43.1989 155.148H43.1136V162H42.0568V153.273H43.0795L47.8523 160.142H47.9375V153.273H48.9773ZM55.0806 159.324V155.455H56.0863V162H55.0806V160.892H55.0124C54.859 161.224 54.6204 161.507 54.2965 161.74C53.9727 161.97 53.5636 162.085 53.0692 162.085C52.6602 162.085 52.2965 161.996 51.9783 161.817C51.6602 161.635 51.4102 161.362 51.2283 160.999C51.0465 160.632 50.9556 160.17 50.9556 159.614V155.455H51.9613V159.545C51.9613 160.023 52.0948 160.403 52.3619 160.688C52.6317 160.972 52.9755 161.114 53.3931 161.114C53.6431 161.114 53.8974 161.05 54.1559 160.922C54.4173 160.794 54.636 160.598 54.8121 160.334C54.9911 160.07 55.0806 159.733 55.0806 159.324ZM53.0692 154.568L54.109 152.591H55.2852L53.9556 154.568H53.0692ZM57.9283 162V155.455H58.8999V156.477H58.9851C59.1214 156.128 59.3416 155.857 59.6456 155.663C59.9496 155.467 60.3146 155.369 60.7408 155.369C61.1726 155.369 61.532 155.467 61.8189 155.663C62.1087 155.857 62.3345 156.128 62.4964 156.477H62.5646C62.7322 156.139 62.9837 155.871 63.3189 155.672C63.6541 155.47 64.0561 155.369 64.5249 155.369C65.1101 155.369 65.5888 155.553 65.9609 155.919C66.3331 156.283 66.5192 156.849 66.5192 157.619V162H65.5135V157.619C65.5135 157.136 65.3814 156.791 65.1172 156.584C64.853 156.376 64.5419 156.273 64.1839 156.273C63.7237 156.273 63.3672 156.412 63.1143 156.69C62.8615 156.966 62.7351 157.315 62.7351 157.739V162H61.7124V157.517C61.7124 157.145 61.5916 156.845 61.3501 156.618C61.1087 156.388 60.7976 156.273 60.4169 156.273C60.1555 156.273 59.9112 156.342 59.6839 156.482C59.4595 156.621 59.2777 156.814 59.1385 157.061C59.0021 157.305 58.9339 157.588 58.9339 157.909V162H57.9283ZM71.1023 162.136C70.4716 162.136 69.9276 161.997 69.4702 161.719C69.0156 161.438 68.6648 161.045 68.4176 160.543C68.1733 160.037 68.0511 159.449 68.0511 158.778C68.0511 158.108 68.1733 157.517 68.4176 157.006C68.6648 156.491 69.0085 156.091 69.4489 155.804C69.892 155.514 70.4091 155.369 71 155.369C71.3409 155.369 71.6776 155.426 72.0099 155.54C72.3423 155.653 72.6449 155.838 72.9176 156.094C73.1903 156.347 73.4077 156.682 73.5696 157.099C73.7315 157.517 73.8125 158.031 73.8125 158.642V159.068H68.767V158.199H72.7898C72.7898 157.83 72.7159 157.5 72.5682 157.21C72.4233 156.92 72.2159 156.692 71.946 156.524C71.679 156.357 71.3636 156.273 71 156.273C70.5994 156.273 70.2528 156.372 69.9602 156.571C69.6705 156.767 69.4474 157.023 69.2912 157.338C69.1349 157.653 69.0568 157.991 69.0568 158.352V158.932C69.0568 159.426 69.142 159.845 69.3125 160.189C69.4858 160.53 69.7259 160.79 70.0327 160.969C70.3395 161.145 70.696 161.233 71.1023 161.233C71.3665 161.233 71.6051 161.196 71.8182 161.122C72.0341 161.045 72.2202 160.932 72.3764 160.781C72.5327 160.628 72.6534 160.437 72.7386 160.21L73.7102 160.483C73.608 160.812 73.4361 161.102 73.1946 161.352C72.9531 161.599 72.6548 161.793 72.2997 161.932C71.9446 162.068 71.5455 162.136 71.1023 162.136ZM75.3423 162V155.455H76.3139V156.443H76.3821C76.5014 156.119 76.7173 155.857 77.0298 155.655C77.3423 155.453 77.6946 155.352 78.0866 155.352C78.1605 155.352 78.2528 155.354 78.3636 155.357C78.4744 155.359 78.5582 155.364 78.6151 155.369V156.392C78.581 156.384 78.5028 156.371 78.3807 156.354C78.2614 156.334 78.1349 156.324 78.0014 156.324C77.6832 156.324 77.3991 156.391 77.1491 156.524C76.902 156.655 76.706 156.837 76.5611 157.07C76.419 157.3 76.348 157.562 76.348 157.858V162H75.3423ZM82.267 162.136C81.6761 162.136 81.1577 161.996 80.7116 161.714C80.2685 161.433 79.9219 161.04 79.6719 160.534C79.4247 160.028 79.3011 159.437 79.3011 158.761C79.3011 158.08 79.4247 157.484 79.6719 156.976C79.9219 156.467 80.2685 156.072 80.7116 155.791C81.1577 155.51 81.6761 155.369 82.267 155.369C82.858 155.369 83.375 155.51 83.8182 155.791C84.2642 156.072 84.6108 156.467 84.858 156.976C85.108 157.484 85.233 158.08 85.233 158.761C85.233 159.437 85.108 160.028 84.858 160.534C84.6108 161.04 84.2642 161.433 83.8182 161.714C83.375 161.996 82.858 162.136 82.267 162.136ZM82.267 161.233C82.7159 161.233 83.0852 161.118 83.375 160.888C83.6648 160.658 83.8793 160.355 84.0185 159.98C84.1577 159.605 84.2273 159.199 84.2273 158.761C84.2273 158.324 84.1577 157.916 84.0185 157.538C83.8793 157.161 83.6648 156.855 83.375 156.622C83.0852 156.389 82.7159 156.273 82.267 156.273C81.8182 156.273 81.4489 156.389 81.1591 156.622C80.8693 156.855 80.6548 157.161 80.5156 157.538C80.3764 157.916 80.3068 158.324 80.3068 158.761C80.3068 159.199 80.3764 159.605 80.5156 159.98C80.6548 160.355 80.8693 160.658 81.1591 160.888C81.4489 161.118 81.8182 161.233 82.267 161.233ZM92.6147 162.136C92.0692 162.136 91.5877 161.999 91.1701 161.723C90.7525 161.445 90.4258 161.053 90.19 160.547C89.9542 160.038 89.8363 159.438 89.8363 158.744C89.8363 158.057 89.9542 157.46 90.19 156.955C90.4258 156.449 90.7539 156.058 91.1744 155.783C91.5948 155.507 92.0806 155.369 92.6317 155.369C93.0579 155.369 93.3945 155.44 93.6417 155.582C93.8917 155.722 94.082 155.881 94.2127 156.06C94.3462 156.236 94.4499 156.381 94.5238 156.494H94.609V153.273H95.6147V162H94.6431V160.994H94.5238C94.4499 161.114 94.3448 161.264 94.2085 161.446C94.0721 161.625 93.8775 161.786 93.6246 161.928C93.3718 162.067 93.0352 162.136 92.6147 162.136ZM92.7511 161.233C93.1545 161.233 93.4954 161.128 93.7738 160.918C94.0522 160.705 94.2638 160.411 94.4087 160.036C94.5536 159.658 94.6261 159.222 94.6261 158.727C94.6261 158.239 94.555 157.811 94.413 157.445C94.271 157.075 94.0607 156.788 93.7823 156.584C93.5039 156.376 93.1602 156.273 92.7511 156.273C92.3249 156.273 91.9698 156.382 91.6857 156.601C91.4045 156.817 91.1928 157.111 91.0508 157.483C90.9116 157.852 90.842 158.267 90.842 158.727C90.842 159.193 90.913 159.616 91.055 159.997C91.1999 160.375 91.413 160.676 91.6942 160.901C91.9783 161.122 92.3306 161.233 92.7511 161.233ZM99.5224 162.153C99.1076 162.153 98.7312 162.075 98.3931 161.919C98.055 161.76 97.7866 161.531 97.5877 161.233C97.3888 160.932 97.2894 160.568 97.2894 160.142C97.2894 159.767 97.3633 159.463 97.511 159.23C97.6587 158.994 97.8562 158.81 98.1033 158.676C98.3505 158.543 98.6232 158.443 98.9215 158.378C99.2227 158.31 99.5252 158.256 99.8292 158.216C100.227 158.165 100.549 158.126 100.797 158.101C101.047 158.072 101.228 158.026 101.342 157.96C101.458 157.895 101.517 157.781 101.517 157.619V157.585C101.517 157.165 101.402 156.838 101.172 156.605C100.944 156.372 100.599 156.256 100.136 156.256C99.6559 156.256 99.2795 156.361 99.0067 156.571C98.734 156.781 98.5423 157.006 98.4315 157.244L97.4769 156.903C97.6474 156.506 97.8746 156.196 98.1587 155.974C98.4457 155.75 98.7582 155.594 99.0962 155.506C99.4371 155.415 99.7724 155.369 100.102 155.369C100.312 155.369 100.554 155.395 100.826 155.446C101.102 155.494 101.368 155.595 101.623 155.749C101.882 155.902 102.096 156.134 102.267 156.443C102.437 156.753 102.522 157.168 102.522 157.688V162H101.517V161.114H101.466C101.397 161.256 101.284 161.408 101.125 161.57C100.966 161.732 100.754 161.869 100.49 161.983C100.225 162.097 99.9031 162.153 99.5224 162.153ZM99.6758 161.25C100.074 161.25 100.409 161.172 100.681 161.016C100.957 160.859 101.164 160.658 101.304 160.411C101.446 160.163 101.517 159.903 101.517 159.631V158.71C101.474 158.761 101.38 158.808 101.235 158.851C101.093 158.891 100.929 158.926 100.741 158.957C100.556 158.986 100.376 159.011 100.2 159.034C100.027 159.054 99.886 159.071 99.7781 159.085C99.5167 159.119 99.2724 159.175 99.0451 159.251C98.8207 159.325 98.6388 159.437 98.4996 159.588C98.3633 159.736 98.2951 159.937 98.2951 160.193C98.2951 160.543 98.4244 160.807 98.6829 160.986C98.9442 161.162 99.2752 161.25 99.6758 161.25ZM112.369 156.92L111.466 157.176C111.409 157.026 111.325 156.879 111.214 156.737C111.107 156.592 110.959 156.473 110.771 156.379C110.584 156.286 110.344 156.239 110.051 156.239C109.651 156.239 109.317 156.331 109.05 156.516C108.786 156.697 108.653 156.929 108.653 157.21C108.653 157.46 108.744 157.658 108.926 157.803C109.108 157.947 109.392 158.068 109.778 158.165L110.75 158.403C111.335 158.545 111.771 158.763 112.058 159.055C112.345 159.345 112.489 159.719 112.489 160.176C112.489 160.551 112.381 160.886 112.165 161.182C111.952 161.477 111.653 161.71 111.27 161.881C110.886 162.051 110.44 162.136 109.932 162.136C109.264 162.136 108.712 161.991 108.274 161.702C107.837 161.412 107.56 160.989 107.443 160.432L108.398 160.193C108.489 160.545 108.661 160.81 108.913 160.986C109.169 161.162 109.503 161.25 109.915 161.25C110.384 161.25 110.756 161.151 111.031 160.952C111.31 160.75 111.449 160.509 111.449 160.227C111.449 160 111.369 159.81 111.21 159.656C111.051 159.5 110.807 159.384 110.477 159.307L109.386 159.051C108.787 158.909 108.347 158.689 108.065 158.391C107.787 158.089 107.648 157.713 107.648 157.261C107.648 156.892 107.751 156.565 107.959 156.281C108.169 155.997 108.455 155.774 108.815 155.612C109.179 155.45 109.591 155.369 110.051 155.369C110.699 155.369 111.207 155.511 111.577 155.795C111.949 156.08 112.213 156.455 112.369 156.92ZM116.662 162.136C116.071 162.136 115.552 161.996 115.106 161.714C114.663 161.433 114.316 161.04 114.066 160.534C113.819 160.028 113.696 159.437 113.696 158.761C113.696 158.08 113.819 157.484 114.066 156.976C114.316 156.467 114.663 156.072 115.106 155.791C115.552 155.51 116.071 155.369 116.662 155.369C117.252 155.369 117.77 155.51 118.213 155.791C118.659 156.072 119.005 156.467 119.252 156.976C119.502 157.484 119.627 158.08 119.627 158.761C119.627 159.437 119.502 160.028 119.252 160.534C119.005 161.04 118.659 161.433 118.213 161.714C117.77 161.996 117.252 162.136 116.662 162.136ZM116.662 161.233C117.11 161.233 117.48 161.118 117.77 160.888C118.059 160.658 118.274 160.355 118.413 159.98C118.552 159.605 118.622 159.199 118.622 158.761C118.622 158.324 118.552 157.916 118.413 157.538C118.274 157.161 118.059 156.855 117.77 156.622C117.48 156.389 117.11 156.273 116.662 156.273C116.213 156.273 115.843 156.389 115.554 156.622C115.264 156.855 115.049 157.161 114.91 157.538C114.771 157.916 114.701 158.324 114.701 158.761C114.701 159.199 114.771 159.605 114.91 159.98C115.049 160.355 115.264 160.658 115.554 160.888C115.843 161.118 116.213 161.233 116.662 161.233ZM121.163 162V155.455H122.134V156.443H122.202C122.322 156.119 122.538 155.857 122.85 155.655C123.163 155.453 123.515 155.352 123.907 155.352C123.981 155.352 124.073 155.354 124.184 155.357C124.295 155.359 124.379 155.364 124.435 155.369V156.392C124.401 156.384 124.323 156.371 124.201 156.354C124.082 156.334 123.955 156.324 123.822 156.324C123.504 156.324 123.219 156.391 122.969 156.524C122.722 156.655 122.526 156.837 122.381 157.07C122.239 157.3 122.168 157.562 122.168 157.858V162H121.163ZM128.884 155.455V156.307H125.492V155.455H128.884ZM126.481 153.886H127.487V160.125C127.487 160.409 127.528 160.622 127.61 160.764C127.695 160.903 127.803 160.997 127.934 161.045C128.067 161.091 128.208 161.114 128.356 161.114C128.467 161.114 128.558 161.108 128.629 161.097C128.7 161.082 128.756 161.071 128.799 161.062L129.004 161.966C128.935 161.991 128.84 162.017 128.718 162.043C128.596 162.071 128.441 162.085 128.254 162.085C127.969 162.085 127.691 162.024 127.418 161.902C127.148 161.78 126.924 161.594 126.745 161.344C126.569 161.094 126.481 160.778 126.481 160.398V153.886ZM133.071 162.136C132.44 162.136 131.896 161.997 131.439 161.719C130.984 161.438 130.634 161.045 130.386 160.543C130.142 160.037 130.02 159.449 130.02 158.778C130.02 158.108 130.142 157.517 130.386 157.006C130.634 156.491 130.977 156.091 131.418 155.804C131.861 155.514 132.378 155.369 132.969 155.369C133.31 155.369 133.646 155.426 133.979 155.54C134.311 155.653 134.614 155.838 134.886 156.094C135.159 156.347 135.376 156.682 135.538 157.099C135.7 157.517 135.781 158.031 135.781 158.642V159.068H130.736V158.199H134.759C134.759 157.83 134.685 157.5 134.537 157.21C134.392 156.92 134.185 156.692 133.915 156.524C133.648 156.357 133.332 156.273 132.969 156.273C132.568 156.273 132.222 156.372 131.929 156.571C131.639 156.767 131.416 157.023 131.26 157.338C131.104 157.653 131.026 157.991 131.026 158.352V158.932C131.026 159.426 131.111 159.845 131.281 160.189C131.455 160.53 131.695 160.79 132.001 160.969C132.308 161.145 132.665 161.233 133.071 161.233C133.335 161.233 133.574 161.196 133.787 161.122C134.003 161.045 134.189 160.932 134.345 160.781C134.501 160.628 134.622 160.437 134.707 160.21L135.679 160.483C135.577 160.812 135.405 161.102 135.163 161.352C134.922 161.599 134.624 161.793 134.268 161.932C133.913 162.068 133.514 162.136 133.071 162.136Z" fill="white"/>
<path fill-rule="evenodd" clip-rule="evenodd" d="M111.777 53.0358C100.257 50.8091 91.4574 48.6891 89.5241 48.2091L89.5108 48.0625L89.4974 48.0225C91.5241 47.5958 101.471 45.7025 112.257 46.6891C131.724 48.4758 129.471 22.2358 113.964 26.7958C119.604 12.0091 97.7908 6.0758 94.0441 25.4491C91.8041 37.0491 89.6574 45.8758 89.2041 47.7292C89.1641 47.7158 89.1241 47.7158 89.0841 47.7158L89.0308 47.7292C88.6174 45.7158 86.7108 35.7692 87.6974 24.9692C89.4841 5.50249 63.2441 7.75578 67.8041 23.2624C53.0041 17.6224 47.0841 39.4224 66.4574 43.1691C78.0441 45.4224 86.8708 47.5558 88.7374 48.0091C88.7241 48.0491 88.7108 48.1025 88.7241 48.1425V48.1958C86.6708 48.6225 76.7374 50.5158 65.9641 49.5291C46.5108 47.7425 48.7508 73.9824 64.2574 69.4224C58.6174 84.2091 80.4308 90.1291 84.1774 70.7558C86.1641 60.5558 88.0574 52.4891 88.7908 49.4358C89.0974 55.4491 88.4841 61.4758 87.2441 67.3424C85.9241 73.6491 83.9374 79.8091 81.8574 85.9425C79.6841 92.0358 77.6841 98.4225 76.8574 105.009C75.9641 111.596 76.1108 118.382 77.4041 124.969V124.982L77.4174 125.049C77.6574 126.076 78.6841 126.716 79.7108 126.476C80.7508 126.223 81.3908 125.196 81.1508 124.169C79.7108 118.036 79.3108 111.676 79.9241 105.369C80.2174 102.209 80.7508 99.0625 81.4841 95.9558C82.2041 92.8358 83.1508 89.7824 84.0841 86.6491C85.9374 80.4091 87.6974 74.1025 88.7774 67.6358C89.6574 62.4625 90.0574 57.1958 89.8174 51.9558C90.4574 56.2225 91.2308 63.5158 90.5241 71.2491C88.7374 90.7024 114.991 88.4625 110.431 72.9558C125.217 78.5958 131.151 56.7825 111.777 53.0358Z" fill="white"/>
</svg>
