<svg width="512" height="512" viewBox="0 0 512 512" fill="none" xmlns="http://www.w3.org/2000/svg">
<g clip-path="url(#clip0_9_2)">
<path fill-rule="evenodd" clip-rule="evenodd" d="M360.62 261.484C307.697 251.288 267.269 241.58 258.387 239.382L258.326 238.711L258.265 238.528C267.575 236.574 313.271 227.904 362.825 232.422C452.256 240.603 441.904 120.449 370.666 141.33C396.576 73.6209 296.365 46.4519 279.152 135.163C268.862 188.28 259 228.698 256.917 237.185C256.733 237.123 256.55 237.123 256.366 237.123L256.121 237.185C254.222 227.965 245.463 182.419 249.995 132.965C258.204 43.8266 137.656 54.1446 158.605 125.15C90.6129 99.3245 63.4161 199.148 152.418 216.304C205.648 226.622 246.198 236.391 254.773 238.466C254.712 238.65 254.651 238.894 254.712 239.077V239.321C245.279 241.275 199.645 249.945 150.152 245.427C60.7822 237.245 71.0729 357.399 142.311 336.519C116.401 404.228 216.612 431.336 233.824 342.624C242.951 295.918 251.649 258.981 255.018 244.999C256.427 272.535 253.609 300.131 247.913 326.995C241.849 355.873 232.722 384.08 223.166 412.165C213.182 440.067 203.994 469.311 200.196 499.472C196.092 529.633 196.766 560.709 202.707 590.87V590.931L202.769 591.236C203.871 595.937 208.588 598.868 213.304 597.769C218.082 596.609 221.022 591.908 219.92 587.207C213.304 559.122 211.467 529.999 214.284 501.121C215.632 486.651 218.082 472.242 221.451 458.017C224.759 443.73 229.108 429.748 233.396 415.401C241.91 386.827 249.995 357.949 254.957 328.338C259 304.649 260.837 280.533 259.735 256.539C262.675 276.076 266.228 309.472 262.981 344.883C254.773 433.961 375.382 423.704 354.433 352.698C422.364 378.524 449.622 278.64 360.62 261.484Z" fill="#00AB37"/>
</g>
<defs>
<clipPath id="clip0_9_2">
<rect width="512" height="512" fill="white"/>
</clipPath>
</defs>
</svg>
