<svg width="37" height="29" viewBox="0 0 37 29" fill="none" xmlns="http://www.w3.org/2000/svg">
<path d="M35.3449 4.48291C34.973 4.09348 34.5252 3.78458 34.029 3.57538C33.5329 3.36618 32.999 3.26115 32.4606 3.26678H26.6911V3.19731C26.695 2.77698 26.6138 2.3602 26.4526 1.972C26.2914 1.5838 26.0533 1.23217 25.7528 0.938239C25.4569 0.640468 25.1049 0.40425 24.7171 0.243212C24.3294 0.0821739 23.9136 -0.000496192 23.4938 -2.91382e-05H13.0672C12.6444 -0.00417438 12.2249 0.0754196 11.833 0.234162C11.4411 0.392905 11.0844 0.627657 10.7837 0.924884C10.4829 1.22211 10.2439 1.57593 10.0806 1.96595C9.91721 2.35596 9.83266 2.77446 9.8318 3.19731V3.26678H4.10132C3.56291 3.26115 3.02907 3.36618 2.53292 3.57538C2.03677 3.78458 1.58889 4.09348 1.21705 4.48291C0.448515 5.24771 0.0113922 6.28395 -2.89892e-05 7.36813V24.6757C-0.00566215 25.2141 0.0993767 25.7479 0.308574 26.244C0.517771 26.7402 0.826666 27.1881 1.2161 27.5599C1.98106 28.3281 3.01728 28.7649 4.10132 28.7761H32.4587C32.9971 28.7817 33.531 28.6766 34.0271 28.4674C34.5233 28.2583 34.9711 27.9494 35.343 27.5599C36.1109 26.7952 36.5477 25.7594 36.5591 24.6757V7.36813C36.5651 6.82969 36.4604 6.29576 36.2516 5.79945C36.0427 5.30313 35.7341 4.85503 35.3449 4.48291ZM34.7539 24.6747H34.7187C34.7189 24.9711 34.6605 25.2647 34.547 25.5386C34.4336 25.8124 34.2672 26.0612 34.0574 26.2707C33.8477 26.4802 33.5987 26.6462 33.3247 26.7594C33.0507 26.8725 32.757 26.9305 32.4606 26.93H4.10132C3.80448 26.9306 3.51044 26.8726 3.23607 26.7593C2.9617 26.646 2.71242 26.4796 2.50252 26.2697C2.29262 26.0598 2.12624 25.8105 2.01293 25.5361C1.89963 25.2618 1.84162 24.9677 1.84225 24.6709V7.36813C1.84162 7.07129 1.89963 6.77725 2.01293 6.50288C2.12624 6.22851 2.29262 5.97923 2.50252 5.76933C2.71242 5.55943 2.9617 5.39305 3.23607 5.27974C3.51044 5.16643 3.80448 5.10843 4.10132 5.10906H10.8091C10.9324 5.10956 11.0547 5.08564 11.1687 5.03866C11.2828 4.99169 11.3864 4.92259 11.4737 4.83537C11.5609 4.74814 11.63 4.64451 11.677 4.53044C11.7239 4.41638 11.7479 4.29414 11.7473 4.17079V3.16306C11.7408 2.98335 11.7714 2.80423 11.8372 2.63687C11.903 2.46952 12.0026 2.31752 12.1297 2.19036C12.2569 2.06321 12.4089 1.96363 12.5762 1.89784C12.7436 1.83205 12.9227 1.80147 13.1024 1.80799H23.4938C23.6735 1.80147 23.8526 1.83205 24.02 1.89784C24.1873 1.96363 24.3393 2.06321 24.4665 2.19036C24.5936 2.31752 24.6932 2.46952 24.759 2.63687C24.8248 2.80423 24.8554 2.98335 24.8488 3.16306V4.17079C24.8483 4.29414 24.8723 4.41638 24.9192 4.53044C24.9662 4.64451 25.0353 4.74814 25.1225 4.83537C25.2098 4.92259 25.3134 4.99169 25.4275 5.03866C25.5415 5.08564 25.6638 5.10956 25.7871 5.10906H32.4949C32.7917 5.10843 33.0858 5.16643 33.3601 5.27974C33.6345 5.39305 33.8838 5.55943 34.0937 5.76933C34.3036 5.97923 34.4699 6.22851 34.5833 6.50288C34.6966 6.77725 34.7546 7.07129 34.7539 7.36813V24.6747Z" fill="black"/>
<path d="M18.2801 7.47186C16.3038 7.47323 14.3891 8.15969 12.8622 9.41433C11.3352 10.669 10.2905 12.4142 9.90589 14.3527C9.52131 16.2912 9.82068 18.3031 10.753 20.0456C11.6853 21.7882 13.1929 23.1536 15.019 23.9093C16.8451 24.665 18.8767 24.7643 20.7677 24.1902C22.6588 23.6161 24.2923 22.4042 25.3901 20.7608C26.4879 19.1174 26.9819 17.1443 26.7881 15.1776C26.5944 13.2108 25.7248 11.3721 24.3274 9.97453C22.7224 8.37261 20.5477 7.4726 18.2801 7.47186ZM23.0066 20.7827C21.7494 22.0294 20.0506 22.7289 18.2801 22.7289C16.5095 22.7289 14.8107 22.0294 13.5535 20.7827C12.9331 20.1624 12.4418 19.4253 12.1078 18.6141C11.7738 17.8028 11.6037 16.9335 11.6075 16.0562C11.6159 14.2873 12.3141 12.5916 13.5535 11.3296C14.1738 10.7092 14.9109 10.2179 15.7221 9.88389C16.5334 9.54988 17.4028 9.37985 18.2801 9.38361C20.0489 9.39201 21.7446 10.0902 23.0066 11.3296C23.6276 11.9496 24.1197 12.6866 24.4544 13.4978C24.789 14.3091 24.9597 15.1786 24.9564 16.0562C24.9676 16.9349 24.8006 17.8067 24.4655 18.6191C24.1304 19.4314 23.6341 20.1675 23.0066 20.7827Z" fill="black"/>
<path d="M30.6535 10.8443C31.5943 10.8443 32.3569 10.0817 32.3569 9.14097C32.3569 8.20024 31.5943 7.43762 30.6535 7.43762C29.7128 7.43762 28.9502 8.20024 28.9502 9.14097C28.9502 10.0817 29.7128 10.8443 30.6535 10.8443Z" fill="black"/>
</svg>
