<svg width="28" height="28" viewBox="0 0 28 28" fill="none" xmlns="http://www.w3.org/2000/svg">
<path d="M26.6697 10.2158H1.67211C1.52144 10.2158 1.37694 10.2757 1.2704 10.3822C1.16386 10.4888 1.104 10.6333 1.104 10.7839V24.4195C1.10492 25.1725 1.40448 25.8945 1.93698 26.427C2.46947 26.9595 3.19144 27.2591 3.94451 27.26H24.3973C25.1503 27.2591 25.8723 26.9595 26.4048 26.427C26.9373 25.8945 27.2368 25.1725 27.2378 24.4195V10.7793C27.2365 10.6295 27.1762 10.4861 27.0697 10.3806C26.9633 10.275 26.8195 10.2158 26.6697 10.2158V10.2158ZM26.1016 24.4195C26.1009 24.8713 25.9212 25.3044 25.6017 25.6239C25.2822 25.9434 24.8491 26.1232 24.3973 26.1238H3.94451C3.49268 26.1232 3.05954 25.9434 2.74006 25.6239C2.42057 25.3044 2.24081 24.8713 2.2402 24.4195V11.3543H26.1016V24.4195Z" fill="black"/>
<path d="M27.2204 4.95792L26.2532 1.28942C26.1424 0.857358 25.8677 0.485446 25.4872 0.252521C25.1068 0.0195954 24.6507 -0.0560316 24.2154 0.0416708L1.3247 5.47312C1.10347 5.52341 0.894539 5.61743 0.710174 5.74963C0.525808 5.88184 0.369734 6.04956 0.251127 6.24296C0.13252 6.43635 0.0537726 6.65151 0.0195156 6.87577C-0.0147413 7.10004 -0.00381697 7.32889 0.0516465 7.54887L1.1223 11.7797C1.15304 11.9022 1.22382 12.011 1.32341 12.0887C1.42299 12.1664 1.54568 12.2086 1.672 12.2087C1.71969 12.209 1.76722 12.2032 1.81345 12.1914C1.88576 12.1732 1.95377 12.1408 2.01356 12.0962C2.07336 12.0517 2.12377 11.9957 2.16191 11.9316C2.20004 11.8675 2.22516 11.7965 2.23581 11.7227C2.24647 11.6489 2.24245 11.5737 2.224 11.5014L2.1619 11.2553L26.8006 5.65827C26.8748 5.64063 26.9446 5.60844 27.0062 5.56356C27.0678 5.51869 27.1198 5.46202 27.1593 5.39686C27.1988 5.33169 27.2249 5.25933 27.2362 5.18398C27.2475 5.10863 27.2437 5.03179 27.225 4.95792H27.2204ZM1.88245 10.1525L1.15565 7.27287C1.13778 7.19937 1.13474 7.12304 1.14671 7.04835C1.15867 6.97366 1.18541 6.90211 1.22534 6.83787C1.26528 6.77363 1.31762 6.71799 1.3793 6.67421C1.44098 6.63042 1.51078 6.59937 1.5846 6.58287L24.4742 1.14912C24.5148 1.13909 24.5565 1.13407 24.5984 1.13417C24.7262 1.13504 24.8501 1.17847 24.9505 1.25761C25.0509 1.33675 25.122 1.44708 25.1527 1.57117L25.9715 4.67617L1.88245 10.1525Z" fill="black"/>
<path d="M6.47091 10.2744C6.33569 10.2084 6.17999 10.1981 6.03723 10.2456C5.89448 10.2931 5.77604 10.3947 5.70731 10.5285L3.43491 15.0733C3.3744 15.2074 3.36815 15.3597 3.41746 15.4983C3.46677 15.6369 3.56782 15.751 3.69943 15.8168C3.83103 15.8825 3.98297 15.8947 4.12339 15.8509C4.26382 15.807 4.38181 15.7106 4.45266 15.5816L6.72506 11.0368C6.79066 10.9017 6.8008 10.7463 6.75331 10.6038C6.70581 10.4613 6.60446 10.3431 6.47091 10.2744V10.2744Z" fill="black"/>
<path d="M12.152 10.2744C12.0169 10.2088 11.8615 10.1987 11.719 10.2462C11.5765 10.2937 11.4582 10.395 11.3895 10.5286L9.11712 15.0734C9.08374 15.1401 9.06385 15.2128 9.05856 15.2872C9.05327 15.3617 9.06268 15.4364 9.08628 15.5072C9.10988 15.578 9.1472 15.6435 9.1961 15.6999C9.245 15.7563 9.30452 15.8025 9.37128 15.8358C9.43803 15.8692 9.51069 15.8891 9.58513 15.8944C9.65957 15.8997 9.73432 15.8903 9.80512 15.8667C9.87592 15.8431 9.9414 15.8057 9.99778 15.7569C10.0542 15.708 10.1003 15.6484 10.1337 15.5817L12.4061 11.0369C12.4717 10.9018 12.4819 10.7464 12.4344 10.6039C12.3869 10.4614 12.2855 10.3432 12.152 10.2744V10.2744Z" fill="black"/>
<path d="M17.8329 10.2744C17.6978 10.2088 17.5424 10.1987 17.3999 10.2462C17.2574 10.2937 17.1392 10.395 17.0704 10.5286L14.798 15.0734C14.7306 15.2082 14.7195 15.3642 14.7672 15.5072C14.8149 15.6502 14.9174 15.7684 15.0522 15.8358C15.187 15.9032 15.343 15.9143 15.486 15.8667C15.629 15.819 15.7472 15.7165 15.8146 15.5817L18.087 11.0369C18.1526 10.9018 18.1628 10.7464 18.1153 10.6039C18.0678 10.4614 17.9664 10.3432 17.8329 10.2744V10.2744Z" fill="black"/>
<path d="M23.514 10.2744C23.3789 10.2088 23.2235 10.1987 23.081 10.2462C22.9385 10.2937 22.8203 10.395 22.7516 10.5286L20.4792 15.0734C20.4118 15.2082 20.4007 15.3642 20.4484 15.5072C20.496 15.6502 20.5985 15.7684 20.7333 15.8358C20.8681 15.9032 21.0242 15.9143 21.1672 15.8667C21.3102 15.819 21.4284 15.7165 21.4958 15.5817L23.7682 11.0369C23.8338 10.9018 23.8439 10.7464 23.7964 10.6039C23.7489 10.4614 23.6476 10.3432 23.514 10.2744V10.2744Z" fill="black"/>
<path d="M26.6697 14.7606H1.67211C1.52144 14.7606 1.37694 14.8205 1.2704 14.927C1.16386 15.0335 1.104 15.178 1.104 15.3287C1.104 15.4794 1.16386 15.6239 1.2704 15.7304C1.37694 15.8369 1.52144 15.8968 1.67211 15.8968H26.6697C26.8203 15.8968 26.9648 15.8369 27.0714 15.7304C27.1779 15.6239 27.2378 15.4794 27.2378 15.3287C27.2378 15.178 27.1779 15.0335 27.0714 14.927C26.9648 14.8205 26.8203 14.7606 26.6697 14.7606Z" fill="black"/>
<path d="M7.16541 9.22333L3.25541 5.31333C3.14866 5.20658 3.00388 5.14661 2.85291 5.14661C2.70195 5.14661 2.55716 5.20658 2.45041 5.31333C2.34366 5.42008 2.28369 5.56487 2.28369 5.71583C2.28369 5.8668 2.34366 6.01158 2.45041 6.11833L6.36041 10.0283C6.4677 10.1341 6.61223 10.1936 6.76291 10.1939C6.83753 10.1942 6.91144 10.1795 6.98035 10.1509C7.04925 10.1223 7.11177 10.0802 7.16426 10.0272C7.21716 9.97449 7.25915 9.9119 7.28783 9.84298C7.31652 9.77405 7.33134 9.70015 7.33145 9.62549C7.33156 9.55084 7.31695 9.47689 7.28846 9.40789C7.25997 9.33888 7.21816 9.27616 7.16541 9.22333V9.22333Z" fill="black"/>
<path d="M12.7246 7.96063L8.80765 4.05063C8.7009 3.94388 8.55611 3.88391 8.40515 3.88391C8.25418 3.88391 8.10941 3.94388 8.00266 4.05063C7.89591 4.15738 7.83594 4.30216 7.83594 4.45313C7.83594 4.6041 7.89591 4.74888 8.00266 4.85563L11.9127 8.76563C12.0194 8.87238 12.1642 8.93235 12.3152 8.93235C12.4661 8.93235 12.6109 8.87238 12.7176 8.76563C12.8244 8.65888 12.8844 8.5141 12.8844 8.36313C12.8844 8.21216 12.8244 8.06738 12.7176 7.96063H12.7246Z" fill="black"/>
<path d="M18.2779 6.69793L14.368 2.78794C14.2612 2.68119 14.1164 2.62122 13.9654 2.62122C13.8145 2.62122 13.6697 2.68119 13.563 2.78794C13.4562 2.89469 13.3962 3.03947 13.3962 3.19043C13.3962 3.3414 13.4562 3.48619 13.563 3.59294L17.473 7.50293C17.5802 7.60874 17.7248 7.66821 17.8755 7.66853C17.95 7.66897 18.0239 7.65455 18.0928 7.62612C18.1617 7.59769 18.2242 7.55581 18.2768 7.50293C18.3299 7.45023 18.372 7.38756 18.4008 7.31853C18.4296 7.2495 18.4445 7.17547 18.4446 7.10067C18.4447 7.02588 18.43 6.9518 18.4014 6.88269C18.3728 6.81358 18.3309 6.75079 18.2779 6.69793V6.69793Z" fill="black"/>
<path d="M23.8302 5.43756L19.9202 1.52756C19.8135 1.42081 19.6687 1.36084 19.5177 1.36084C19.3668 1.36084 19.222 1.42081 19.1152 1.52756C19.0085 1.63431 18.9485 1.7791 18.9485 1.93006C18.9485 2.08103 19.0085 2.22581 19.1152 2.33256L23.0252 6.24256C23.132 6.34931 23.2768 6.40928 23.4277 6.40928C23.5787 6.40928 23.7235 6.34931 23.8302 6.24256C23.937 6.13581 23.9969 5.99103 23.9969 5.84006C23.9969 5.68909 23.937 5.54431 23.8302 5.43756V5.43756Z" fill="black"/>
</svg>
