<svg width="29" height="29" viewBox="0 0 29 29" fill="none" xmlns="http://www.w3.org/2000/svg">
<rect width="29" height="29" rx="14.5" fill="#404040"/>
<path d="M18.5654 10.4763C18.4129 10.3236 18.1656 10.3236 18.0131 10.4763L14.5062 13.9835L10.9994 10.4763C10.8469 10.3236 10.5996 10.3236 10.4471 10.4763C10.2945 10.6289 10.2945 10.8761 10.4471 11.0287L13.9539 14.5359L10.4471 18.0431C10.2945 18.1955 10.2945 18.4429 10.4471 18.5955C10.5234 18.6716 10.6232 18.7097 10.7232 18.7097C10.8232 18.7097 10.923 18.6716 10.9994 18.5955L14.5062 15.0884L18.0131 18.5955C18.0894 18.6716 18.1893 18.7097 18.2893 18.7097C18.3893 18.7097 18.4891 18.6716 18.5654 18.5955C18.718 18.4429 18.718 18.1955 18.5654 18.0431L15.0586 14.5359L18.5654 11.0287C18.7182 10.8763 18.7182 10.6289 18.5654 10.4763ZM14.5062 4.74487C9.10742 4.74487 4.71542 9.13687 4.71542 14.5353C4.71581 19.9343 9.1082 24.3265 14.507 24.3265C19.9053 24.3265 24.2971 19.9341 24.2971 14.5353C24.2971 9.13687 19.9051 4.74487 14.5062 4.74487ZM14.507 23.5455H14.5066C9.53886 23.5455 5.49706 19.5035 5.49667 14.5355C5.49667 9.56772 9.53827 5.52632 14.5062 5.52632C19.4742 5.52632 23.5158 9.56792 23.5158 14.5355C23.5158 19.5033 19.4746 23.5455 14.507 23.5455Z" fill="white"/>
</svg>
