<svg width="23" height="32" viewBox="0 0 23 32" fill="none" xmlns="http://www.w3.org/2000/svg">
<path d="M11.5252 1.09533e-06C9.5786 -0.000870427 7.66716 0.518356 5.98857 1.50397C4.30998 2.48958 2.9252 3.90578 1.9775 5.60606C1.0298 7.30634 0.553593 9.22895 0.598137 11.175C0.642681 13.1211 1.20636 15.0199 2.23086 16.675L10.903 30.6498C10.9848 30.7814 11.0988 30.89 11.2342 30.9652C11.3696 31.0405 11.522 31.08 11.677 31.0799H11.6839C11.84 31.0786 11.9932 31.0372 12.1287 30.9597C12.2643 30.8822 12.3776 30.7711 12.4578 30.6372L20.9092 16.5267C21.8997 14.8681 22.4327 12.9766 22.4539 11.0449C22.4751 9.11325 21.9837 7.21049 21.0299 5.53062C20.076 3.85074 18.6938 2.45382 17.0241 1.48225C15.3544 0.510689 13.457 -0.0007747 11.5252 1.09533e-06V1.09533e-06ZM19.3452 15.5871L11.6632 28.4165L3.77876 15.7102C2.9276 14.3355 2.45763 12.759 2.4171 11.1426C2.37658 9.52627 2.76694 7.92824 3.54814 6.51261C4.32933 5.09698 5.4732 3.91475 6.86231 3.08731C8.25142 2.25987 9.83571 1.81703 11.4525 1.80425C13.0693 1.79147 14.6604 2.20921 16.0625 3.01459C17.4645 3.81997 18.6269 4.98396 19.4304 6.38706C20.2338 7.79017 20.6494 9.38183 20.6345 10.9986C20.6195 12.6154 20.1745 14.1991 19.3452 15.5871V15.5871Z" fill="white"/>
<path d="M11.5252 5.46246C10.4448 5.46246 9.38867 5.78284 8.49036 6.38306C7.59206 6.98329 6.89192 7.83641 6.47848 8.83455C6.06503 9.83269 5.95685 10.931 6.16762 11.9906C6.37839 13.0503 6.89865 14.0236 7.66259 14.7875C8.42653 15.5515 9.39986 16.0717 10.4595 16.2825C11.5191 16.4933 12.6174 16.3851 13.6156 15.9717C14.6137 15.5582 15.4668 14.8581 16.0671 13.9598C16.6673 13.0615 16.9877 12.0053 16.9877 10.925C16.9861 9.47669 16.4102 8.08817 15.3861 7.06408C14.362 6.03999 12.9734 5.46399 11.5252 5.46246V5.46246ZM11.5252 14.5785C10.8023 14.5797 10.0954 14.3663 9.4938 13.9656C8.89223 13.5648 8.42305 12.9946 8.14564 12.3271C7.86823 11.6596 7.79504 10.9248 7.93537 10.2157C8.07569 9.50663 8.4232 8.85509 8.93393 8.34355C9.44466 7.83202 10.0956 7.48348 10.8045 7.34204C11.5134 7.2006 12.2483 7.27262 12.9162 7.54898C13.5842 7.82534 14.1551 8.29362 14.5568 8.89457C14.9585 9.49551 15.173 10.2021 15.173 10.925C15.1721 11.8927 14.7876 12.8206 14.1039 13.5054C13.4202 14.1902 12.4929 14.5761 11.5252 14.5785V14.5785Z" fill="white"/>
</svg>
