<svg width="52" height="60" viewBox="0 0 52 60" fill="none" xmlns="http://www.w3.org/2000/svg">
<g clip-path="url(#clip0_1_123)">
<path fill-rule="evenodd" clip-rule="evenodd" d="M33 42C33.553 42 34 42.448 34 43C34 43.552 33.553 44 33 44H19C18.448 44 18 43.552 18 43C18 42.448 18.448 42 19 42H33ZM39 38H19C18.448 38 18 37.552 18 37C18 36.448 18.448 36 19 36H39C39.553 36 40 36.448 40 37C40 37.552 39.553 38 39 38ZM41 32H19C18.448 32 18 31.552 18 31C18 30.448 18.448 30 19 30H41C41.553 30 42 30.448 42 31C42 31.552 41.553 32 41 32ZM18 25C18 24.448 18.448 24 19 24H37C37.553 24 38 24.448 38 25C38 25.552 37.553 26 37 26H19C18.448 26 18 25.552 18 25ZM18 19C18 18.448 18.448 18 19 18H39C39.553 18 40 18.448 40 19C40 19.552 39.553 20 39 20H19C18.448 20 18 19.552 18 19ZM14 43C14 43.552 13.552 44 13 44H11C10.448 44 10 43.552 10 43C10 42.448 10.448 42 11 42H13C13.552 42 14 42.448 14 43ZM14 37C14 37.552 13.552 38 13 38H11C10.448 38 10 37.552 10 37C10 36.448 10.448 36 11 36H13C13.552 36 14 36.448 14 37ZM14 31C14 31.552 13.552 32 13 32H11C10.448 32 10 31.552 10 31C10 30.448 10.448 30 11 30H13C13.552 30 14 30.448 14 31ZM14 25C14 25.552 13.552 26 13 26H11C10.448 26 10 25.552 10 25C10 24.448 10.448 24 11 24H13C13.552 24 14 24.448 14 25ZM14 19C14 19.552 13.552 20 13 20H11C10.448 20 10 19.552 10 19C10 18.448 10.448 18 11 18H13C13.552 18 14 18.448 14 19ZM14 5C14 4.448 14.448 4 15 4H17C17.552 4 18 4.448 18 5C18 5.552 17.552 6 17 6H15C14.448 6 14 5.552 14 5ZM24 5C24 4.448 24.448 4 25 4H27C27.553 4 28 4.448 28 5C28 5.552 27.553 6 27 6H25C24.448 6 24 5.552 24 5ZM34 5C34 4.448 34.447 4 35 4H37C37.553 4 38 4.448 38 5C38 5.552 37.553 6 37 6H35C34.447 6 34 5.552 34 5ZM11 8C11.551 8 12 8.449 12 9C12 9.551 11.551 10 11 10C10.449 10 10 9.551 10 9C10 8.449 10.449 8 11 8ZM8 9C8 10.654 9.346 12 11 12C12.654 12 14 10.654 14 9C14 7.698 13.162 6.599 12 6.184V1C12 0.448 11.552 0 11 0C10.448 0 10 0.448 10 1V6.184C8.838 6.599 8 7.698 8 9ZM41 8C41.552 8 42 8.449 42 9C42 9.551 41.552 10 41 10C40.448 10 40 9.551 40 9C40 8.449 40.448 8 41 8ZM38 9C38 10.654 39.346 12 41 12C42.654 12 44 10.654 44 9C44 7.698 43.161 6.599 42 6.184V1C42 0.448 41.553 0 41 0C40.447 0 40 0.448 40 1V6.184C38.839 6.599 38 7.698 38 9ZM31 8C31.552 8 32 8.449 32 9C32 9.551 31.552 10 31 10C30.448 10 30 9.551 30 9C30 8.449 30.448 8 31 8ZM28 9C28 10.654 29.346 12 31 12C32.654 12 34 10.654 34 9C34 7.698 33.161 6.599 32 6.184V1C32 0.448 31.553 0 31 0C30.447 0 30 0.448 30 1V6.184C28.839 6.599 28 7.698 28 9ZM21 8C21.551 8 22 8.449 22 9C22 9.551 21.551 10 21 10C20.449 10 20 9.551 20 9C20 8.449 20.449 8 21 8ZM18 9C18 10.654 19.346 12 21 12C22.654 12 24 10.654 24 9C24 7.698 23.162 6.599 22 6.184V1C22 0.448 21.552 0 21 0C20.448 0 20 0.448 20 1V6.184C18.838 6.599 18 7.698 18 9ZM47 58H5C3.878 58 2.714 57.085 2.233 56H49.767C49.286 57.085 48.122 58 47 58ZM2 54H50V52H2V54ZM47 4H45C44.447 4 44 4.448 44 5C44 5.552 44.447 6 45 6H47C48.458 6 50 7.542 50 9V50H2V9C2 7.542 3.542 6 5 6H7C7.552 6 8 5.552 8 5C8 4.448 7.552 4 7 4H5C2.43 4 0 6.43 0 9V55C0 57.57 2.43 60 5 60H47C49.57 60 52 57.57 52 55V9C52 6.43 49.57 4 47 4Z" fill="black"/>
</g>
<defs>
<clipPath id="clip0_1_123">
<rect width="52" height="60" fill="white"/>
</clipPath>
</defs>
</svg>
