<svg width="91" height="152" viewBox="0 0 91 152" fill="none" xmlns="http://www.w3.org/2000/svg">
<path d="M57.9539 10.8987C57.594 8.39766 56.4968 6.06069 54.8024 4.18628C53.108 2.31186 50.8933 0.985091 48.4411 0.375449C45.989 -0.234193 43.4108 -0.0990323 41.0359 0.763666C38.661 1.62636 36.5971 3.17744 35.108 5.21875C34.9881 5.37692 34.9009 5.55739 34.8516 5.74962C34.8022 5.94184 34.7916 6.14198 34.8204 6.33835C34.8492 6.53472 34.9168 6.72338 35.0193 6.89333C35.1218 7.06328 35.2571 7.21111 35.4174 7.3282C35.5776 7.44528 35.7596 7.52928 35.9527 7.57528C36.1457 7.62128 36.346 7.62836 36.5419 7.59612C36.7377 7.56387 36.9251 7.49295 37.0933 7.38748C37.2614 7.28201 37.4068 7.14411 37.5211 6.98182C38.6598 5.42063 40.238 4.23429 42.0541 3.57432C43.8703 2.91435 45.8419 2.81071 47.7173 3.27664C49.5926 3.74257 51.2865 4.75691 52.5826 6.19012C53.8787 7.62334 54.7182 9.41035 54.9938 11.3229C55.0453 11.6783 55.223 12.0033 55.4943 12.2386C55.7656 12.4739 56.1124 12.6037 56.4715 12.6044C56.5428 12.6042 56.6139 12.5991 56.6845 12.5894C57.077 12.5333 57.4311 12.3238 57.6691 12.0067C57.9071 11.6897 58.0095 11.2912 57.9539 10.8987Z" fill="#F86237"/>
<path d="M79.5459 27.6345L75.0613 20.1597C74.9286 19.9382 74.7407 19.7549 74.516 19.6277C74.2913 19.5005 74.0374 19.4337 73.7792 19.4339H69.4815C69.0901 19.4416 68.7174 19.6025 68.4434 19.8819C68.1693 20.1614 68.0158 20.5372 68.0158 20.9287C68.0158 21.3201 68.1693 21.6959 68.4434 21.9754C68.7174 22.2549 69.0901 22.4158 69.4815 22.4235H72.9318L75.6227 26.9081H15.1249L17.8158 22.4235H19.3989C19.5977 22.4274 19.7952 22.3916 19.98 22.3182C20.1648 22.2449 20.3331 22.1354 20.475 21.9962C20.617 21.857 20.7298 21.6909 20.8067 21.5076C20.8837 21.3243 20.9234 21.1275 20.9234 20.9287C20.9234 20.7299 20.8837 20.533 20.8067 20.3497C20.7298 20.1664 20.617 20.0003 20.475 19.8611C20.3331 19.722 20.1648 19.6125 19.98 19.5391C19.7952 19.4657 19.5977 19.43 19.3989 19.4339H16.9679C16.7098 19.4339 16.4562 19.5008 16.2317 19.628C16.0072 19.7552 15.8195 19.9384 15.6869 20.1597L11.2029 27.6345C11.0668 27.8615 10.9933 28.1204 10.99 28.385C10.9867 28.6496 11.0536 28.9103 11.1839 29.1406C11.3143 29.3708 11.5034 29.5624 11.7319 29.6957C11.9605 29.829 12.2203 29.8993 12.4849 29.8994H78.2639C78.5285 29.8993 78.7883 29.829 79.0169 29.6957C79.2454 29.5624 79.4345 29.3708 79.5649 29.1406C79.6952 28.9103 79.7621 28.6496 79.7588 28.385C79.7555 28.1204 79.682 27.8615 79.5459 27.6345Z" fill="#F86237"/>
<path d="M72.0942 13.8495C71.9908 13.6826 71.8554 13.5377 71.6959 13.4232C71.5364 13.3087 71.3559 13.2267 71.1646 13.1821L50.7845 8.41555C50.5935 8.37097 50.3955 8.36445 50.2019 8.39638C50.0084 8.4283 49.823 8.49804 49.6564 8.60162C49.4897 8.70519 49.3452 8.84057 49.2309 9.00002C49.1166 9.15947 49.0348 9.33987 48.9902 9.53093L47.4534 16.1005C47.3699 16.4841 47.4406 16.8852 47.6503 17.2172C47.86 17.5491 48.1918 17.7852 48.5742 17.8745C48.9565 17.9639 49.3586 17.8992 49.6937 17.6945C50.0287 17.4898 50.2698 17.1615 50.3649 16.7806L51.5613 11.6673L69.0294 15.7532L66.2846 27.4887C66.24 27.6797 66.2334 27.8777 66.2653 28.0713C66.2972 28.2649 66.3669 28.4503 66.4705 28.617C66.5741 28.7836 66.7095 28.9282 66.869 29.0425C67.0285 29.1568 67.2089 29.2385 67.4 29.283C67.5124 29.3092 67.6273 29.3224 67.7427 29.3224C68.0796 29.3223 68.4067 29.2082 68.6705 28.9986C68.9344 28.7891 69.1196 28.4964 69.1961 28.1682L72.2817 14.977C72.3263 14.786 72.3327 14.588 72.3005 14.3945C72.2683 14.201 72.1982 14.0158 72.0942 13.8495Z" fill="#F86237"/>
<path d="M46.165 17.3837L44.8031 5.86526C44.7564 5.47146 44.5552 5.11233 44.2438 4.8668C43.9324 4.62128 43.5363 4.50948 43.1424 4.55598L18.1382 7.51025C17.7444 7.55693 17.3853 7.7581 17.1399 8.06953C16.8945 8.38095 16.7828 8.77712 16.8295 9.17087L19.1002 28.3876C19.1438 28.7507 19.3189 29.0853 19.5925 29.328C19.8661 29.5708 20.2191 29.7049 20.5848 29.7049C20.6442 29.7047 20.7035 29.7012 20.7625 29.6945C21.1562 29.6477 21.5152 29.4465 21.7606 29.1351C22.006 28.8237 22.1177 28.4276 22.0712 28.0339L19.9742 10.3019L42.0097 7.69721L43.1957 17.7333C43.2489 18.121 43.452 18.4724 43.7614 18.712C44.0708 18.9516 44.4619 19.0604 44.8506 19.0149C45.2393 18.9695 45.5946 18.7734 45.8404 18.4689C46.0862 18.1643 46.2027 17.7755 46.165 17.386V17.3837Z" fill="#F86237"/>
<path d="M57.9879 27.836L55.0209 15.4962C54.9751 15.3053 54.8921 15.1253 54.7767 14.9665C54.6612 14.8077 54.5156 14.6732 54.3481 14.5707C54.1807 14.4683 53.9946 14.3998 53.8007 14.3693C53.6068 14.3388 53.4087 14.3469 53.2179 14.393L29.1339 20.1852C28.7484 20.2779 28.4154 20.5199 28.2083 20.858C28.0012 21.1961 27.9369 21.6027 28.0295 21.9882L29.5125 28.1561C29.5556 28.3498 29.6368 28.5331 29.7515 28.6951C29.8662 28.8571 30.012 28.9946 30.1804 29.0997C30.3488 29.2048 30.5364 29.2753 30.7323 29.3071C30.9282 29.3389 31.1285 29.3314 31.3215 29.285C31.5145 29.2385 31.6963 29.1542 31.8563 29.0367C32.0164 28.9193 32.1514 28.7712 32.2536 28.601C32.3558 28.4309 32.4231 28.2421 32.4515 28.0456C32.4799 27.8492 32.469 27.649 32.4193 27.4569L31.2854 22.7424L52.4619 17.6488L55.0788 28.5358C55.1764 28.9163 55.4197 29.2431 55.7563 29.4456C56.0928 29.6482 56.4955 29.7102 56.8774 29.6183C57.2593 29.5264 57.5898 29.2879 57.7973 28.9545C58.0049 28.621 58.0729 28.2192 57.9867 27.836H57.9879Z" fill="#F86237"/>
<path d="M79.7583 28.328C79.7385 27.9453 79.5725 27.5849 79.2946 27.321C79.0167 27.0571 78.6482 26.91 78.265 26.9099H12.4855C12.1023 26.9098 11.7336 27.057 11.4557 27.3208C11.1778 27.5847 11.0119 27.9453 10.9921 28.328L8.00198 86.6321C7.99154 86.8347 8.02242 87.0372 8.09277 87.2274C8.16311 87.4177 8.27143 87.5916 8.41114 87.7386C8.55085 87.8856 8.71902 88.0027 8.90541 88.0826C9.0918 88.1625 9.29252 88.2037 9.49533 88.2036H81.254C81.4569 88.2039 81.6578 88.1628 81.8443 88.0829C82.0308 88.0031 82.1991 87.8861 82.339 87.739C82.4788 87.592 82.5872 87.418 82.6576 87.2277C82.728 87.0374 82.759 86.8348 82.7485 86.6321L79.7583 28.328ZM11.068 85.2134L13.9042 29.8995H76.8452L79.6814 85.2134H11.068Z" fill="#F86237"/>
<path d="M56.5866 32.889C55.6996 32.889 54.8326 33.1521 54.0951 33.6448C53.3576 34.1376 52.7827 34.838 52.4433 35.6575C52.1039 36.477 52.0151 37.3787 52.1881 38.2486C52.3611 39.1186 52.7883 39.9176 53.4155 40.5448C54.0426 41.172 54.8417 41.5992 55.7117 41.7722C56.5816 41.9452 57.4833 41.8564 58.3028 41.517C59.1223 41.1776 59.8227 40.6027 60.3155 39.8652C60.8082 39.1277 61.0713 38.2607 61.0713 37.3737C61.0699 36.1847 60.5969 35.0448 59.7562 34.2041C58.9155 33.3633 57.7756 32.8904 56.5866 32.889ZM56.5866 38.8694C56.2909 38.8694 56.0018 38.7817 55.756 38.6174C55.5101 38.4531 55.3185 38.2196 55.2053 37.9464C55.0922 37.6732 55.0626 37.3726 55.1202 37.0826C55.1779 36.7926 55.3203 36.5262 55.5294 36.3171C55.7385 36.108 56.0049 35.9656 56.2949 35.9079C56.5849 35.8502 56.8855 35.8798 57.1587 35.993C57.4319 36.1062 57.6654 36.2978 57.8297 36.5437C57.994 36.7895 58.0817 37.0786 58.0817 37.3743C58.0814 37.7707 57.9238 38.1508 57.6434 38.4311C57.3631 38.7114 56.983 38.8691 56.5866 38.8694Z" fill="#F86237"/>
<path d="M34.1622 32.889C33.2752 32.889 32.4081 33.1521 31.6706 33.6448C30.9331 34.1376 30.3583 34.838 30.0189 35.6575C29.6794 36.477 29.5906 37.3787 29.7637 38.2486C29.9367 39.1186 30.3638 39.9176 30.991 40.5448C31.6182 41.172 32.4173 41.5992 33.2872 41.7722C34.1572 41.9452 35.0589 41.8564 35.8784 41.517C36.6978 41.1776 37.3982 40.6027 37.891 39.8652C38.3838 39.1277 38.6468 38.2607 38.6468 37.3737C38.6454 36.1847 38.1725 35.0448 37.3318 34.2041C36.491 33.3633 35.3511 32.8904 34.1622 32.889ZM34.1622 38.8694C33.8665 38.8694 33.5774 38.7817 33.3315 38.6174C33.0857 38.4531 32.894 38.2196 32.7809 37.9464C32.6677 37.6732 32.6381 37.3726 32.6958 37.0826C32.7535 36.7926 32.8959 36.5262 33.105 36.3171C33.3141 36.108 33.5805 35.9656 33.8705 35.9079C34.1605 35.8502 34.4611 35.8798 34.7343 35.993C35.0075 36.1062 35.241 36.2978 35.4053 36.5437C35.5696 36.7895 35.6572 37.0786 35.6572 37.3743C35.6569 37.7707 35.4993 38.1508 35.219 38.4311C34.9387 38.7114 34.5586 38.8691 34.1622 38.8694Z" fill="#F86237"/>
<path d="M56.585 37.3737H56.4692C56.0727 37.3737 55.6924 37.5312 55.412 37.8116C55.1316 38.0919 54.9741 38.4722 54.9741 38.8687C54.9734 39.0675 55.0128 39.2644 55.0899 39.4476V47.0931C55.0998 48.3756 54.8557 49.6473 54.3718 50.8349C53.8879 52.0226 53.1737 53.1027 52.2704 54.013C51.367 54.9234 50.2925 55.6459 49.1086 56.139C47.9247 56.632 46.6549 56.8859 45.3724 56.8859C44.09 56.8859 42.8202 56.632 41.6363 56.139C40.4524 55.6459 39.3778 54.9234 38.4745 54.013C37.5712 53.1027 36.857 52.0226 36.373 50.8349C35.8891 49.6473 35.6451 48.3756 35.655 47.0931V38.8739C35.6473 38.4826 35.4864 38.1099 35.2069 37.8358C34.9274 37.5618 34.5516 37.4083 34.1602 37.4083C33.7688 37.4083 33.393 37.5618 33.1135 37.8358C32.834 38.1099 32.6731 38.4826 32.6654 38.8739V47.096C32.6654 50.4662 34.0042 53.6984 36.3873 56.0815C38.7704 58.4645 42.0025 59.8033 45.3727 59.8033C48.7429 59.8033 51.9751 58.4645 54.3582 56.0815C56.7412 53.6984 58.08 50.4662 58.08 47.096V38.8687C58.0799 38.4723 57.9223 38.0921 57.642 37.8117C57.3616 37.5314 56.9814 37.3738 56.585 37.3737Z" fill="#F86237"/>
<path d="M9.21875 115.581C9.21875 116.712 8.80859 117.594 7.98828 118.227C7.16797 118.859 6.05469 119.176 4.64844 119.176C3.125 119.176 1.95312 118.979 1.13281 118.587V117.146C1.66016 117.368 2.23438 117.544 2.85547 117.673C3.47656 117.802 4.0918 117.866 4.70117 117.866C5.69727 117.866 6.44727 117.679 6.95117 117.304C7.45508 116.923 7.70703 116.396 7.70703 115.722C7.70703 115.276 7.61621 114.913 7.43457 114.632C7.25879 114.345 6.95996 114.081 6.53809 113.841C6.12207 113.601 5.48633 113.328 4.63086 113.023C3.43555 112.596 2.58008 112.089 2.06445 111.503C1.55469 110.917 1.2998 110.152 1.2998 109.209C1.2998 108.219 1.67188 107.431 2.41602 106.845C3.16016 106.259 4.14453 105.966 5.36914 105.966C6.64648 105.966 7.82129 106.2 8.89355 106.669L8.42773 107.97C7.36719 107.524 6.33594 107.302 5.33398 107.302C4.54297 107.302 3.9248 107.472 3.47949 107.812C3.03418 108.151 2.81152 108.623 2.81152 109.227C2.81152 109.672 2.89355 110.038 3.05762 110.325C3.22168 110.606 3.49707 110.867 3.88379 111.107C4.27637 111.342 4.87402 111.603 5.67676 111.89C7.02441 112.37 7.9502 112.886 8.4541 113.437C8.96387 113.987 9.21875 114.702 9.21875 115.581ZM21.6025 119H20.1084V112.953H13.3408V119H11.8467V106.15H13.3408V111.617H20.1084V106.15H21.6025V119ZM36.2891 112.558C36.2891 114.614 35.7676 116.231 34.7246 117.409C33.6875 118.587 32.2432 119.176 30.3916 119.176C28.499 119.176 27.0371 118.599 26.0059 117.444C24.9805 116.284 24.4678 114.649 24.4678 112.54C24.4678 110.448 24.9834 108.828 26.0146 107.68C27.0459 106.525 28.5107 105.948 30.4092 105.948C32.2549 105.948 33.6963 106.534 34.7334 107.706C35.7705 108.878 36.2891 110.495 36.2891 112.558ZM26.0498 112.558C26.0498 114.298 26.4189 115.619 27.1572 116.521C27.9014 117.418 28.9795 117.866 30.3916 117.866C31.8154 117.866 32.8906 117.418 33.6172 116.521C34.3438 115.625 34.707 114.304 34.707 112.558C34.707 110.829 34.3438 109.52 33.6172 108.629C32.8965 107.732 31.8271 107.284 30.4092 107.284C28.9854 107.284 27.9014 107.735 27.1572 108.638C26.4189 109.534 26.0498 110.841 26.0498 112.558ZM47.3105 109.895C47.3105 111.195 46.8652 112.197 45.9746 112.9C45.0898 113.598 43.8213 113.946 42.1689 113.946H40.6572V119H39.1631V106.15H42.4941C45.7051 106.15 47.3105 107.398 47.3105 109.895ZM40.6572 112.663H42.002C43.3262 112.663 44.2842 112.449 44.876 112.021C45.4678 111.594 45.7637 110.908 45.7637 109.965C45.7637 109.115 45.4854 108.482 44.9287 108.066C44.3721 107.65 43.5049 107.442 42.3271 107.442H40.6572V112.663ZM58.1562 109.895C58.1562 111.195 57.7109 112.197 56.8203 112.9C55.9355 113.598 54.667 113.946 53.0146 113.946H51.5029V119H50.0088V106.15H53.3398C56.5508 106.15 58.1562 107.398 58.1562 109.895ZM51.5029 112.663H52.8477C54.1719 112.663 55.1299 112.449 55.7217 112.021C56.3135 111.594 56.6094 110.908 56.6094 109.965C56.6094 109.115 56.3311 108.482 55.7744 108.066C55.2178 107.65 54.3506 107.442 53.1729 107.442H51.5029V112.663ZM60.8545 119V106.15H62.3486V119H60.8545ZM75.9189 119H74.2139L67.1914 108.216H67.1211C67.2148 109.481 67.2617 110.642 67.2617 111.696V119H65.8818V106.15H67.5693L74.5742 116.891H74.6445C74.6328 116.732 74.6064 116.226 74.5654 115.37C74.5244 114.509 74.5098 113.894 74.5215 113.524V106.15H75.9189V119ZM85.1035 112.268H89.4717V118.517C88.792 118.733 88.1006 118.897 87.3975 119.009C86.6943 119.12 85.8799 119.176 84.9541 119.176C83.0088 119.176 81.4941 118.599 80.4102 117.444C79.3262 116.284 78.7842 114.661 78.7842 112.575C78.7842 111.239 79.0508 110.07 79.584 109.068C80.123 108.061 80.8965 107.293 81.9043 106.766C82.9121 106.232 84.0928 105.966 85.4463 105.966C86.8174 105.966 88.0947 106.218 89.2783 106.722L88.6982 108.04C87.5381 107.548 86.4219 107.302 85.3496 107.302C83.7852 107.302 82.5635 107.768 81.6846 108.699C80.8057 109.631 80.3662 110.923 80.3662 112.575C80.3662 114.31 80.7881 115.625 81.6318 116.521C82.4814 117.418 83.7266 117.866 85.3672 117.866C86.2578 117.866 87.1279 117.764 87.9775 117.559V113.604H85.1035V112.268Z" fill="#ADADAD"/>
<path d="M10.6914 129.402C8.80859 129.402 7.32031 130.031 6.22656 131.289C5.14062 132.539 4.59766 134.254 4.59766 136.434C4.59766 138.676 5.12109 140.41 6.16797 141.637C7.22266 142.855 8.72266 143.465 10.668 143.465C11.8633 143.465 13.2266 143.25 14.7578 142.82V144.566C13.5703 145.012 12.1055 145.234 10.3633 145.234C7.83984 145.234 5.89062 144.469 4.51562 142.938C3.14844 141.406 2.46484 139.23 2.46484 136.41C2.46484 134.645 2.79297 133.098 3.44922 131.77C4.11328 130.441 5.06641 129.418 6.30859 128.699C7.55859 127.98 9.02734 127.621 10.7148 127.621C12.5117 127.621 14.082 127.949 15.4258 128.605L14.582 130.316C13.2852 129.707 11.9883 129.402 10.6914 129.402ZM28.0469 145H18.4961V127.867H28.0469V129.637H20.4883V135.156H27.5898V136.914H20.4883V143.219H28.0469V145ZM45.2383 145H42.9648L33.6016 130.621H33.5078C33.6328 132.309 33.6953 133.855 33.6953 135.262V145H31.8555V127.867H34.1055L43.4453 142.188H43.5391C43.5234 141.977 43.4883 141.301 43.4336 140.16C43.3789 139.012 43.3594 138.191 43.375 137.699V127.867H45.2383V145ZM55.2227 145H53.2305V129.637H47.8047V127.867H60.6484V129.637H55.2227V145ZM72.7891 145H63.2383V127.867H72.7891V129.637H65.2305V135.156H72.332V136.914H65.2305V143.219H72.7891V145ZM78.5898 137.875V145H76.5977V127.867H81.2969C83.3984 127.867 84.9492 128.27 85.9492 129.074C86.957 129.879 87.4609 131.09 87.4609 132.707C87.4609 134.973 86.3125 136.504 84.0156 137.301L88.668 145H86.3125L82.1641 137.875H78.5898ZM78.5898 136.164H81.3203C82.7266 136.164 83.7578 135.887 84.4141 135.332C85.0703 134.77 85.3984 133.93 85.3984 132.812C85.3984 131.68 85.0625 130.863 84.3906 130.363C83.7266 129.863 82.6562 129.613 81.1797 129.613H78.5898V136.164Z" fill="#FD7A54"/>
</svg>
