<svg width="400" height="400" viewBox="0 0 400 400" fill="none" xmlns="http://www.w3.org/2000/svg">
<g clip-path="url(#clip0_1_127)">
<path fill-rule="evenodd" clip-rule="evenodd" d="M219.654 233.6C221.206 233.6 222.462 234.854 222.462 236.4C222.462 237.946 221.206 239.2 219.654 239.2H180.346C178.796 239.2 177.538 237.946 177.538 236.4C177.538 234.854 178.796 233.6 180.346 233.6H219.654ZM236.5 222.4H180.346C178.796 222.4 177.538 221.146 177.538 219.6C177.538 218.054 178.796 216.8 180.346 216.8H236.5C238.053 216.8 239.308 218.054 239.308 219.6C239.308 221.146 238.053 222.4 236.5 222.4ZM242.115 205.6H180.346C178.796 205.6 177.538 204.346 177.538 202.8C177.538 201.254 178.796 200 180.346 200H242.115C243.668 200 244.923 201.254 244.923 202.8C244.923 204.346 243.668 205.6 242.115 205.6ZM177.538 186C177.538 184.454 178.796 183.2 180.346 183.2H230.885C232.437 183.2 233.692 184.454 233.692 186C233.692 187.546 232.437 188.8 230.885 188.8H180.346C178.796 188.8 177.538 187.546 177.538 186ZM177.538 169.2C177.538 167.654 178.796 166.4 180.346 166.4H236.5C238.053 166.4 239.308 167.654 239.308 169.2C239.308 170.746 238.053 172 236.5 172H180.346C178.796 172 177.538 170.746 177.538 169.2ZM166.308 236.4C166.308 237.946 165.05 239.2 163.5 239.2H157.885C156.335 239.2 155.077 237.946 155.077 236.4C155.077 234.854 156.335 233.6 157.885 233.6H163.5C165.05 233.6 166.308 234.854 166.308 236.4ZM166.308 219.6C166.308 221.146 165.05 222.4 163.5 222.4H157.885C156.335 222.4 155.077 221.146 155.077 219.6C155.077 218.054 156.335 216.8 157.885 216.8H163.5C165.05 216.8 166.308 218.054 166.308 219.6ZM166.308 202.8C166.308 204.346 165.05 205.6 163.5 205.6H157.885C156.335 205.6 155.077 204.346 155.077 202.8C155.077 201.254 156.335 200 157.885 200H163.5C165.05 200 166.308 201.254 166.308 202.8ZM166.308 186C166.308 187.546 165.05 188.8 163.5 188.8H157.885C156.335 188.8 155.077 187.546 155.077 186C155.077 184.454 156.335 183.2 157.885 183.2H163.5C165.05 183.2 166.308 184.454 166.308 186ZM166.308 169.2C166.308 170.746 165.05 172 163.5 172H157.885C156.335 172 155.077 170.746 155.077 169.2C155.077 167.654 156.335 166.4 157.885 166.4H163.5C165.05 166.4 166.308 167.654 166.308 169.2ZM166.308 130C166.308 128.454 167.566 127.2 169.115 127.2H174.731C176.281 127.2 177.538 128.454 177.538 130C177.538 131.546 176.281 132.8 174.731 132.8H169.115C167.566 132.8 166.308 131.546 166.308 130ZM194.385 130C194.385 128.454 195.642 127.2 197.192 127.2H202.808C204.36 127.2 205.615 128.454 205.615 130C205.615 131.546 204.36 132.8 202.808 132.8H197.192C195.642 132.8 194.385 131.546 194.385 130ZM222.462 130C222.462 128.454 223.717 127.2 225.269 127.2H230.885C232.437 127.2 233.692 128.454 233.692 130C233.692 131.546 232.437 132.8 230.885 132.8H225.269C223.717 132.8 222.462 131.546 222.462 130ZM157.885 138.4C159.432 138.4 160.692 139.657 160.692 141.2C160.692 142.743 159.432 144 157.885 144C156.338 144 155.077 142.743 155.077 141.2C155.077 139.657 156.338 138.4 157.885 138.4ZM149.462 141.2C149.462 145.831 153.241 149.6 157.885 149.6C162.529 149.6 166.308 145.831 166.308 141.2C166.308 137.554 163.955 134.477 160.692 133.315V118.8C160.692 117.254 159.434 116 157.885 116C156.335 116 155.077 117.254 155.077 118.8V133.315C151.814 134.477 149.462 137.554 149.462 141.2ZM242.115 138.4C243.665 138.4 244.923 139.657 244.923 141.2C244.923 142.743 243.665 144 242.115 144C240.566 144 239.308 142.743 239.308 141.2C239.308 139.657 240.566 138.4 242.115 138.4ZM233.692 141.2C233.692 145.831 237.471 149.6 242.115 149.6C246.759 149.6 250.538 145.831 250.538 141.2C250.538 137.554 248.183 134.477 244.923 133.315V118.8C244.923 117.254 243.668 116 242.115 116C240.563 116 239.308 117.254 239.308 118.8V133.315C236.048 134.477 233.692 137.554 233.692 141.2ZM214.038 138.4C215.588 138.4 216.846 139.657 216.846 141.2C216.846 142.743 215.588 144 214.038 144C212.489 144 211.231 142.743 211.231 141.2C211.231 139.657 212.489 138.4 214.038 138.4ZM205.615 141.2C205.615 145.831 209.395 149.6 214.038 149.6C218.682 149.6 222.462 145.831 222.462 141.2C222.462 137.554 220.106 134.477 216.846 133.315V118.8C216.846 117.254 215.591 116 214.038 116C212.486 116 211.231 117.254 211.231 118.8V133.315C207.971 134.477 205.615 137.554 205.615 141.2ZM185.962 138.4C187.509 138.4 188.769 139.657 188.769 141.2C188.769 142.743 187.509 144 185.962 144C184.415 144 183.154 142.743 183.154 141.2C183.154 139.657 184.415 138.4 185.962 138.4ZM177.538 141.2C177.538 145.831 181.318 149.6 185.962 149.6C190.605 149.6 194.385 145.831 194.385 141.2C194.385 137.554 192.032 134.477 188.769 133.315V118.8C188.769 117.254 187.511 116 185.962 116C184.412 116 183.154 117.254 183.154 118.8V133.315C179.891 134.477 177.538 137.554 177.538 141.2ZM258.962 278.4H141.038C137.888 278.4 134.62 275.838 133.27 272.8H266.73C265.38 275.838 262.112 278.4 258.962 278.4ZM132.615 267.2H267.385V261.6H132.615V267.2ZM258.962 127.2H253.346C251.794 127.2 250.538 128.454 250.538 130C250.538 131.546 251.794 132.8 253.346 132.8H258.962C263.055 132.8 267.385 137.118 267.385 141.2V256H132.615V141.2C132.615 137.118 136.945 132.8 141.038 132.8H146.654C148.204 132.8 149.462 131.546 149.462 130C149.462 128.454 148.204 127.2 146.654 127.2H141.038C133.823 127.2 127 134.004 127 141.2V270C127 277.196 133.823 284 141.038 284H258.962C266.177 284 273 277.196 273 270V141.2C273 134.004 266.177 127.2 258.962 127.2Z" fill="black"/>
</g>
<defs>
<clipPath id="clip0_1_127">
<rect width="146" height="168" fill="white" transform="translate(127 116)"/>
</clipPath>
</defs>
</svg>
