<svg width="400" height="400" viewBox="0 0 400 400" fill="none" xmlns="http://www.w3.org/2000/svg">
<g clip-path="url(#clip0_1_131)">
<path fill-rule="evenodd" clip-rule="evenodd" d="M210.231 217.6C211.039 217.6 211.692 218.257 211.692 219.067C211.692 219.876 211.039 220.533 210.231 220.533H189.769C188.962 220.533 188.308 219.876 188.308 219.067C188.308 218.257 188.962 217.6 189.769 217.6H210.231ZM219 211.733H189.769C188.962 211.733 188.308 211.076 188.308 210.267C188.308 209.457 188.962 208.8 189.769 208.8H219C219.808 208.8 220.462 209.457 220.462 210.267C220.462 211.076 219.808 211.733 219 211.733ZM221.923 202.933H189.769C188.962 202.933 188.308 202.276 188.308 201.467C188.308 200.657 188.962 200 189.769 200H221.923C222.731 200 223.385 200.657 223.385 201.467C223.385 202.276 222.731 202.933 221.923 202.933ZM188.308 192.667C188.308 191.857 188.962 191.2 189.769 191.2H216.077C216.885 191.2 217.538 191.857 217.538 192.667C217.538 193.476 216.885 194.133 216.077 194.133H189.769C188.962 194.133 188.308 193.476 188.308 192.667ZM188.308 183.867C188.308 183.057 188.962 182.4 189.769 182.4H219C219.808 182.4 220.462 183.057 220.462 183.867C220.462 184.676 219.808 185.333 219 185.333H189.769C188.962 185.333 188.308 184.676 188.308 183.867ZM182.462 219.067C182.462 219.876 181.807 220.533 181 220.533H178.077C177.27 220.533 176.615 219.876 176.615 219.067C176.615 218.257 177.27 217.6 178.077 217.6H181C181.807 217.6 182.462 218.257 182.462 219.067ZM182.462 210.267C182.462 211.076 181.807 211.733 181 211.733H178.077C177.27 211.733 176.615 211.076 176.615 210.267C176.615 209.457 177.27 208.8 178.077 208.8H181C181.807 208.8 182.462 209.457 182.462 210.267ZM182.462 201.467C182.462 202.276 181.807 202.933 181 202.933H178.077C177.27 202.933 176.615 202.276 176.615 201.467C176.615 200.657 177.27 200 178.077 200H181C181.807 200 182.462 200.657 182.462 201.467ZM182.462 192.667C182.462 193.476 181.807 194.133 181 194.133H178.077C177.27 194.133 176.615 193.476 176.615 192.667C176.615 191.857 177.27 191.2 178.077 191.2H181C181.807 191.2 182.462 191.857 182.462 192.667ZM182.462 183.867C182.462 184.676 181.807 185.333 181 185.333H178.077C177.27 185.333 176.615 184.676 176.615 183.867C176.615 183.057 177.27 182.4 178.077 182.4H181C181.807 182.4 182.462 183.057 182.462 183.867ZM182.462 163.333C182.462 162.524 183.116 161.867 183.923 161.867H186.846C187.653 161.867 188.308 162.524 188.308 163.333C188.308 164.143 187.653 164.8 186.846 164.8H183.923C183.116 164.8 182.462 164.143 182.462 163.333ZM197.077 163.333C197.077 162.524 197.732 161.867 198.538 161.867H201.462C202.27 161.867 202.923 162.524 202.923 163.333C202.923 164.143 202.27 164.8 201.462 164.8H198.538C197.732 164.8 197.077 164.143 197.077 163.333ZM211.692 163.333C211.692 162.524 212.346 161.867 213.154 161.867H216.077C216.885 161.867 217.538 162.524 217.538 163.333C217.538 164.143 216.885 164.8 216.077 164.8H213.154C212.346 164.8 211.692 164.143 211.692 163.333ZM178.077 167.733C178.882 167.733 179.538 168.392 179.538 169.2C179.538 170.008 178.882 170.667 178.077 170.667C177.272 170.667 176.615 170.008 176.615 169.2C176.615 168.392 177.272 167.733 178.077 167.733ZM173.692 169.2C173.692 171.626 175.66 173.6 178.077 173.6C180.494 173.6 182.462 171.626 182.462 169.2C182.462 167.29 181.237 165.679 179.538 165.07V157.467C179.538 156.657 178.884 156 178.077 156C177.27 156 176.615 156.657 176.615 157.467V165.07C174.917 165.679 173.692 167.29 173.692 169.2ZM221.923 167.733C222.73 167.733 223.385 168.392 223.385 169.2C223.385 170.008 222.73 170.667 221.923 170.667C221.116 170.667 220.462 170.008 220.462 169.2C220.462 168.392 221.116 167.733 221.923 167.733ZM217.538 169.2C217.538 171.626 219.506 173.6 221.923 173.6C224.34 173.6 226.308 171.626 226.308 169.2C226.308 167.29 225.081 165.679 223.385 165.07V157.467C223.385 156.657 222.731 156 221.923 156C221.115 156 220.462 156.657 220.462 157.467V165.07C218.765 165.679 217.538 167.29 217.538 169.2ZM207.308 167.733C208.114 167.733 208.769 168.392 208.769 169.2C208.769 170.008 208.114 170.667 207.308 170.667C206.501 170.667 205.846 170.008 205.846 169.2C205.846 168.392 206.501 167.733 207.308 167.733ZM202.923 169.2C202.923 171.626 204.89 173.6 207.308 173.6C209.725 173.6 211.692 171.626 211.692 169.2C211.692 167.29 210.466 165.679 208.769 165.07V157.467C208.769 156.657 208.116 156 207.308 156C206.499 156 205.846 156.657 205.846 157.467V165.07C204.149 165.679 202.923 167.29 202.923 169.2ZM192.692 167.733C193.498 167.733 194.154 168.392 194.154 169.2C194.154 170.008 193.498 170.667 192.692 170.667C191.887 170.667 191.231 170.008 191.231 169.2C191.231 168.392 191.887 167.733 192.692 167.733ZM188.308 169.2C188.308 171.626 190.275 173.6 192.692 173.6C195.11 173.6 197.077 171.626 197.077 169.2C197.077 167.29 195.852 165.679 194.154 165.07V157.467C194.154 156.657 193.499 156 192.692 156C191.886 156 191.231 156.657 191.231 157.467V165.07C189.532 165.679 188.308 167.29 188.308 169.2ZM230.692 241.067H169.308C167.668 241.067 165.967 239.725 165.264 238.133H234.736C234.033 239.725 232.332 241.067 230.692 241.067ZM164.923 235.2H235.077V232.267H164.923V235.2ZM230.692 161.867H227.769C226.961 161.867 226.308 162.524 226.308 163.333C226.308 164.143 226.961 164.8 227.769 164.8H230.692C232.823 164.8 235.077 167.062 235.077 169.2V229.333H164.923V169.2C164.923 167.062 167.177 164.8 169.308 164.8H172.231C173.038 164.8 173.692 164.143 173.692 163.333C173.692 162.524 173.038 161.867 172.231 161.867H169.308C165.552 161.867 162 165.431 162 169.2V236.667C162 240.436 165.552 244 169.308 244H230.692C234.448 244 238 240.436 238 236.667V169.2C238 165.431 234.448 161.867 230.692 161.867Z" fill="black"/>
</g>
<defs>
<clipPath id="clip0_1_131">
<rect width="76" height="88" fill="white" transform="translate(162 156)"/>
</clipPath>
</defs>
</svg>
