<svg width="75" height="116" viewBox="0 0 75 116" fill="none" xmlns="http://www.w3.org/2000/svg">
<path fill-rule="evenodd" clip-rule="evenodd" d="M59.7774 42.0358C48.2574 39.8091 39.4574 37.6891 37.5241 37.2091L37.5108 37.0625L37.4974 37.0225C39.5241 36.5958 49.4708 34.7025 60.2574 35.6891C79.7241 37.4758 77.4708 11.2358 61.9641 15.7958C67.6041 1.00915 45.7908 -4.9242 42.0441 14.4491C39.8041 26.0491 37.6574 34.8758 37.2041 36.7292C37.1641 36.7158 37.1241 36.7158 37.0841 36.7158L37.0308 36.7292C36.6174 34.7158 34.7108 24.7692 35.6974 13.9692C37.4841 -5.49751 11.2441 -3.24422 15.8041 12.2624C1.0041 6.62245 -4.9159 28.4224 14.4574 32.1691C26.0441 34.4224 34.8708 36.5558 36.7374 37.0091C36.7241 37.0491 36.7108 37.1025 36.7241 37.1425V37.1958C34.6708 37.6225 24.7374 39.5158 13.9641 38.5291C-5.48924 36.7425 -3.24924 62.9824 12.2574 58.4224C6.61743 73.2091 28.4308 79.1291 32.1774 59.7558C34.1641 49.5558 36.0574 41.4891 36.7908 38.4358C37.0974 44.4491 36.4841 50.4758 35.2441 56.3424C33.9241 62.6491 31.9374 68.8091 29.8574 74.9425C27.6841 81.0358 25.6841 87.4225 24.8574 94.0091C23.9641 100.596 24.1108 107.382 25.4041 113.969V113.982L25.4174 114.049C25.6574 115.076 26.6841 115.716 27.7108 115.476C28.7508 115.223 29.3908 114.196 29.1508 113.169C27.7108 107.036 27.3108 100.676 27.9241 94.3691C28.2174 91.2091 28.7508 88.0625 29.4841 84.9558C30.2041 81.8358 31.1508 78.7824 32.0841 75.6491C33.9374 69.4091 35.6974 63.1025 36.7774 56.6358C37.6574 51.4625 38.0574 46.1958 37.8174 40.9558C38.4574 45.2225 39.2308 52.5158 38.5241 60.2491C36.7374 79.7024 62.9908 77.4625 58.4308 61.9558C73.2174 67.5958 79.1508 45.7825 59.7774 42.0358Z" fill="#00AB37"/>
</svg>
